<svg width="49" height="19" viewBox="0 0 49 19" fill="none" xmlns="http://www.w3.org/2000/svg">
<path d="M8.72 15L7.344 11.464H2.816L1.456 15H0L4.464 3.528H5.76L10.208 15H8.72ZM5.632 6.728C5.6 6.64267 5.54667 6.488 5.472 6.264C5.39733 6.04 5.32267 5.81067 5.248 5.576C5.184 5.33067 5.13067 5.144 5.088 5.016C5.03467 5.22933 4.976 5.448 4.912 5.672C4.85867 5.88533 4.8 6.08267 4.736 6.264C4.68267 6.44533 4.63467 6.6 4.592 6.728L3.296 10.184H6.912L5.632 6.728ZM21.7068 15H19.9788L14.8108 9.208V15H13.3708V3.576H14.8108V9.112L19.8508 3.576H21.4828L16.5228 9.128L21.7068 15ZM34.8294 13.736V18.008H33.4534V15H24.8614V3.576H26.3014V13.72H32.0134V3.576H33.4374V13.736H34.8294ZM41.5367 15H37.4087V14.168L38.7527 13.864V4.728L37.4087 4.408V3.576H41.5367V4.408L40.1927 4.728V13.864L41.5367 14.168V15ZM48.5586 15H44.4306V14.168L45.7746 13.864V4.728L44.4306 4.408V3.576H48.5586V4.408L47.2146 4.728V13.864L48.5586 14.168V15ZM44.2706 1.256C44.2706 0.978666 44.3453 0.781333 44.4946 0.664C44.644 0.535999 44.82 0.471999 45.0226 0.471999C45.2253 0.471999 45.4013 0.535999 45.5506 0.664C45.7 0.781333 45.7746 0.978666 45.7746 1.256C45.7746 1.52267 45.7 1.72533 45.5506 1.864C45.4013 1.992 45.2253 2.056 45.0226 2.056C44.82 2.056 44.644 1.992 44.4946 1.864C44.3453 1.72533 44.2706 1.52267 44.2706 1.256ZM47.2786 1.256C47.2786 0.978666 47.348 0.781333 47.4866 0.664C47.636 0.535999 47.812 0.471999 48.0146 0.471999C48.2173 0.471999 48.3933 0.535999 48.5426 0.664C48.692 0.781333 48.7666 0.978666 48.7666 1.256C48.7666 1.52267 48.692 1.72533 48.5426 1.864C48.3933 1.992 48.2173 2.056 48.0146 2.056C47.812 2.056 47.636 1.992 47.4866 1.864C47.348 1.72533 47.2786 1.52267 47.2786 1.256Z" fill="white"/>
</svg>
