<svg width="85" height="13" viewBox="0 0 85 13" fill="none" xmlns="http://www.w3.org/2000/svg">
<path d="M7 0.575999V1.856H1.992V12H0.552V0.575999H7ZM20.1181 6.272C20.1181 7.15733 20.0061 7.96267 19.7821 8.688C19.5581 9.40267 19.2221 10.0213 18.7741 10.544C18.3368 11.0667 17.7875 11.4667 17.1261 11.744C16.4755 12.0213 15.7181 12.16 14.8541 12.16C13.9581 12.16 13.1795 12.0213 12.5181 11.744C11.8568 11.456 11.3075 11.056 10.8701 10.544C10.4328 10.0213 10.1075 9.39733 9.89413 8.672C9.68079 7.94667 9.57413 7.14133 9.57413 6.256C9.57413 5.08267 9.76613 4.05867 10.1501 3.184C10.5341 2.30933 11.1155 1.62667 11.8941 1.136C12.6835 0.645333 13.6755 0.4 14.8701 0.4C16.0115 0.4 16.9715 0.645333 17.7501 1.136C18.5288 1.616 19.1155 2.29867 19.5101 3.184C19.9155 4.05867 20.1181 5.088 20.1181 6.272ZM11.0941 6.272C11.0941 7.232 11.2275 8.05867 11.4941 8.752C11.7608 9.44533 12.1715 9.97867 12.7261 10.352C13.2915 10.7253 14.0008 10.912 14.8541 10.912C15.7181 10.912 16.4221 10.7253 16.9661 10.352C17.5208 9.97867 17.9315 9.44533 18.1981 8.752C18.4648 8.05867 18.5981 7.232 18.5981 6.272C18.5981 4.832 18.2995 3.70667 17.7021 2.896C17.1048 2.07467 16.1608 1.664 14.8701 1.664C14.0061 1.664 13.2915 1.85067 12.7261 2.224C12.1715 2.58667 11.7608 3.11467 11.4941 3.808C11.2275 4.49067 11.0941 5.312 11.0941 6.272ZM32.0816 12H30.6416V1.84H27.0256C26.951 2.42667 26.871 3.04533 26.7856 3.696C26.7003 4.336 26.6096 4.97067 26.5136 5.6C26.4283 6.22933 26.343 6.82133 26.2576 7.376C26.1723 7.93067 26.087 8.416 26.0016 8.832C25.863 9.54667 25.6923 10.1547 25.4896 10.656C25.287 11.1573 25.015 11.536 24.6736 11.792C24.343 12.048 23.9056 12.176 23.3616 12.176C23.1803 12.176 22.9936 12.1547 22.8016 12.112C22.6203 12.08 22.4603 12.0373 22.3216 11.984V10.784C22.439 10.8373 22.5723 10.8853 22.7216 10.928C22.871 10.96 23.031 10.976 23.2016 10.976C23.5216 10.976 23.7723 10.848 23.9536 10.592C24.1456 10.3253 24.295 10 24.4016 9.616C24.5083 9.22133 24.599 8.832 24.6736 8.448C24.7376 8.13867 24.8123 7.728 24.8976 7.216C24.983 6.69333 25.0736 6.08533 25.1696 5.392C25.2763 4.69867 25.383 3.94667 25.4896 3.136C25.607 2.31467 25.719 1.46133 25.8256 0.575999H32.0816V12ZM46.6738 6.272C46.6738 7.15733 46.5618 7.96267 46.3378 8.688C46.1138 9.40267 45.7778 10.0213 45.3298 10.544C44.8924 11.0667 44.3431 11.4667 43.6818 11.744C43.0311 12.0213 42.2738 12.16 41.4098 12.16C40.5138 12.16 39.7351 12.0213 39.0738 11.744C38.4124 11.456 37.8631 11.056 37.4258 10.544C36.9884 10.0213 36.6631 9.39733 36.4498 8.672C36.2364 7.94667 36.1298 7.14133 36.1298 6.256C36.1298 5.08267 36.3218 4.05867 36.7058 3.184C37.0898 2.30933 37.6711 1.62667 38.4498 1.136C39.2391 0.645333 40.2311 0.4 41.4258 0.4C42.5671 0.4 43.5271 0.645333 44.3058 1.136C45.0844 1.616 45.6711 2.29867 46.0658 3.184C46.4711 4.05867 46.6738 5.088 46.6738 6.272ZM37.6498 6.272C37.6498 7.232 37.7831 8.05867 38.0498 8.752C38.3164 9.44533 38.7271 9.97867 39.2818 10.352C39.8471 10.7253 40.5564 10.912 41.4098 10.912C42.2738 10.912 42.9778 10.7253 43.5218 10.352C44.0764 9.97867 44.4871 9.44533 44.7538 8.752C45.0204 8.05867 45.1538 7.232 45.1538 6.272C45.1538 4.832 44.8551 3.70667 44.2578 2.896C43.6604 2.07467 42.7164 1.664 41.4258 1.664C40.5618 1.664 39.8471 1.85067 39.2818 2.224C38.7271 2.58667 38.3164 3.11467 38.0498 3.808C37.7831 4.49067 37.6498 5.312 37.6498 6.272ZM53.9898 0.575999C54.9391 0.575999 55.7338 0.666666 56.3738 0.848C57.0244 1.02933 57.5098 1.328 57.8298 1.744C58.1604 2.16 58.3258 2.71467 58.3258 3.408C58.3258 3.856 58.2404 4.256 58.0698 4.608C57.9098 4.94933 57.6644 5.23733 57.3338 5.472C57.0138 5.696 56.6191 5.85067 56.1498 5.936V6.016C56.6298 6.09067 57.0618 6.22933 57.4458 6.432C57.8404 6.63467 58.1498 6.92267 58.3738 7.296C58.5978 7.66933 58.7098 8.15467 58.7098 8.752C58.7098 9.44533 58.5498 10.0373 58.2298 10.528C57.9098 11.008 57.4511 11.376 56.8538 11.632C56.2671 11.8773 55.5631 12 54.7418 12H50.7258V0.575999H53.9898ZM54.2778 5.44C55.2591 5.44 55.9311 5.28533 56.2938 4.976C56.6564 4.656 56.8378 4.18667 56.8378 3.568C56.8378 2.93867 56.6138 2.49067 56.1658 2.224C55.7284 1.94667 55.0244 1.808 54.0538 1.808H52.1658V5.44H54.2778ZM52.1658 6.64V10.784H54.4698C55.4831 10.784 56.1871 10.5867 56.5818 10.192C56.9764 9.79733 57.1738 9.28 57.1738 8.64C57.1738 8.23467 57.0831 7.88267 56.9018 7.584C56.7311 7.28533 56.4378 7.056 56.0218 6.896C55.6164 6.72533 55.0618 6.64 54.3578 6.64H52.1658ZM71.388 12H69.948V6.672H64.092V12H62.652V0.575999H64.092V5.408H69.948V0.575999H71.388V12ZM83.1994 12L81.8234 8.464H77.2954L75.9354 12H74.4794L78.9434 0.528H80.2394L84.6874 12H83.1994ZM80.1114 3.728C80.0794 3.64267 80.026 3.488 79.9514 3.264C79.8767 3.04 79.802 2.81067 79.7274 2.576C79.6634 2.33067 79.61 2.144 79.5674 2.016C79.514 2.22933 79.4554 2.448 79.3914 2.672C79.338 2.88533 79.2794 3.08267 79.2154 3.264C79.162 3.44533 79.114 3.6 79.0714 3.728L77.7754 7.184H81.3914L80.1114 3.728Z" fill="white"/>
</svg>
