<svg width="125" height="22" viewBox="0 0 125 22" fill="none" xmlns="http://www.w3.org/2000/svg">
<path d="M10.7765 5.208V15.372H12.4925V21.092H10.6225V17H2.41652V21.092H0.568517V15.372H1.51452C2.18918 14.4333 2.74652 13.414 3.18652 12.314C3.64118 11.1993 3.97852 10.0407 4.19852 8.838C4.43318 7.62067 4.55785 6.41067 4.57252 5.208H10.7765ZM6.28852 6.726C6.22985 7.72333 6.07585 8.75733 5.82652 9.828C5.57718 10.884 5.25452 11.896 4.85852 12.864C4.47718 13.832 4.02985 14.668 3.51652 15.372H8.90652V6.726H6.28852ZM19.3577 4.988C20.3697 4.988 21.2351 5.208 21.9537 5.648C22.6871 6.088 23.2444 6.71133 23.6257 7.518C24.0217 8.31 24.2197 9.24133 24.2197 10.312V11.478H16.1457C16.1751 12.8127 16.5124 13.832 17.1577 14.536C17.8177 15.2253 18.7344 15.57 19.9077 15.57C20.6557 15.57 21.3157 15.504 21.8877 15.372C22.4744 15.2253 23.0757 15.02 23.6917 14.756V16.45C23.0904 16.714 22.4964 16.9047 21.9097 17.022C21.3231 17.154 20.6264 17.22 19.8197 17.22C18.7051 17.22 17.7151 16.9927 16.8497 16.538C15.9991 16.0833 15.3317 15.4087 14.8477 14.514C14.3784 13.6047 14.1437 12.4973 14.1437 11.192C14.1437 9.90133 14.3564 8.794 14.7817 7.87C15.2217 6.946 15.8304 6.23467 16.6077 5.736C17.3997 5.23733 18.3164 4.988 19.3577 4.988ZM19.3357 6.572C18.4117 6.572 17.6784 6.87267 17.1357 7.474C16.6077 8.06067 16.2924 8.882 16.1897 9.938H22.1957C22.1957 9.26333 22.0931 8.67667 21.8877 8.178C21.6824 7.67933 21.3671 7.29067 20.9417 7.012C20.5311 6.71867 19.9957 6.572 19.3357 6.572ZM35.3617 6.836H31.5117V17H29.5977V6.836H25.7917V5.208H35.3617V6.836ZM42.1506 5.01C43.5879 5.01 44.6512 5.32533 45.3406 5.956C46.0299 6.58667 46.3746 7.59133 46.3746 8.97V17H44.9666L44.5926 15.328H44.5046C44.1672 15.7533 43.8152 16.1127 43.4486 16.406C43.0966 16.6847 42.6859 16.89 42.2166 17.022C41.7619 17.154 41.2046 17.22 40.5446 17.22C39.8406 17.22 39.2026 17.0953 38.6306 16.846C38.0732 16.5967 37.6332 16.2153 37.3106 15.702C36.9879 15.174 36.8266 14.514 36.8266 13.722C36.8266 12.5487 37.2886 11.6467 38.2126 11.016C39.1366 10.3707 40.5592 10.0187 42.4806 9.96L44.4826 9.894V9.19C44.4826 8.20733 44.2699 7.52533 43.8446 7.144C43.4192 6.76267 42.8179 6.572 42.0406 6.572C41.4246 6.572 40.8379 6.66733 40.2806 6.858C39.7232 7.034 39.2026 7.23933 38.7186 7.474L38.1246 6.022C38.6379 5.74333 39.2466 5.50867 39.9506 5.318C40.6546 5.11267 41.3879 5.01 42.1506 5.01ZM42.7226 11.302C41.2559 11.3607 40.2366 11.5953 39.6646 12.006C39.1072 12.4167 38.8286 12.996 38.8286 13.744C38.8286 14.404 39.0266 14.888 39.4226 15.196C39.8332 15.504 40.3539 15.658 40.9846 15.658C41.9819 15.658 42.8106 15.3867 43.4706 14.844C44.1306 14.2867 44.4606 13.436 44.4606 12.292V11.236L42.7226 11.302ZM58.9926 17H57.0346V6.814H53.5586C53.4119 8.67667 53.2286 10.268 53.0086 11.588C52.7886 12.8933 52.5099 13.9567 52.1726 14.778C51.8353 15.5993 51.4319 16.2007 50.9626 16.582C50.4933 16.9633 49.9433 17.154 49.3126 17.154C49.1219 17.154 48.9313 17.1393 48.7406 17.11C48.5646 17.0953 48.4179 17.0587 48.3006 17V15.548C48.3886 15.5773 48.4839 15.5993 48.5866 15.614C48.6893 15.6287 48.7919 15.636 48.8946 15.636C49.2173 15.636 49.5106 15.504 49.7746 15.24C50.0386 14.976 50.2733 14.5727 50.4786 14.03C50.6986 13.4873 50.8966 12.8053 51.0726 11.984C51.2486 11.148 51.4026 10.1653 51.5346 9.036C51.6666 7.90667 51.7839 6.63067 51.8866 5.208H58.9926V17ZM68.1694 10.048C69.196 10.048 70.0467 10.1727 70.7214 10.422C71.396 10.6713 71.902 11.0453 72.2394 11.544C72.5914 12.028 72.7674 12.644 72.7674 13.392C72.7674 14.1253 72.5987 14.7633 72.2614 15.306C71.9387 15.8487 71.4327 16.2667 70.7434 16.56C70.054 16.8533 69.1667 17 68.0814 17H62.7354V5.208H64.6714V10.048H68.1694ZM70.8314 13.502C70.8314 12.7833 70.5747 12.2993 70.0614 12.05C69.5627 11.786 68.8587 11.654 67.9494 11.654H64.6714V15.438H67.9934C68.8147 15.438 69.4894 15.2913 70.0174 14.998C70.56 14.7047 70.8314 14.206 70.8314 13.502ZM77.7339 5.208V10.114H84.1359V5.208H86.0719V17H84.1359V11.742H77.7339V17H75.7979V5.208H77.7339ZM91.7417 5.208V17H89.8057V5.208H91.7417ZM90.7957 0.785999C91.089 0.785999 91.3457 0.888666 91.5657 1.094C91.8003 1.28467 91.9177 1.59267 91.9177 2.018C91.9177 2.42867 91.8003 2.73667 91.5657 2.942C91.3457 3.14733 91.089 3.25 90.7957 3.25C90.473 3.25 90.2017 3.14733 89.9817 2.942C89.7617 2.73667 89.6517 2.42867 89.6517 2.018C89.6517 1.59267 89.7617 1.28467 89.9817 1.094C90.2017 0.888666 90.473 0.785999 90.7957 0.785999ZM111.472 5.208V17H95.4775V5.208H97.4135V15.372H102.496V5.208H104.432V15.372H109.536V5.208H111.472ZM119.797 4.988C120.809 4.988 121.675 5.208 122.393 5.648C123.127 6.088 123.684 6.71133 124.065 7.518C124.461 8.31 124.659 9.24133 124.659 10.312V11.478H116.585C116.615 12.8127 116.952 13.832 117.597 14.536C118.257 15.2253 119.174 15.57 120.347 15.57C121.095 15.57 121.755 15.504 122.327 15.372C122.914 15.2253 123.515 15.02 124.131 14.756V16.45C123.53 16.714 122.936 16.9047 122.349 17.022C121.763 17.154 121.066 17.22 120.259 17.22C119.145 17.22 118.155 16.9927 117.289 16.538C116.439 16.0833 115.771 15.4087 115.287 14.514C114.818 13.6047 114.583 12.4973 114.583 11.192C114.583 9.90133 114.796 8.794 115.221 7.87C115.661 6.946 116.27 6.23467 117.047 5.736C117.839 5.23733 118.756 4.988 119.797 4.988ZM119.775 6.572C118.851 6.572 118.118 6.87267 117.575 7.474C117.047 8.06067 116.732 8.882 116.629 9.938H122.635C122.635 9.26333 122.533 8.67667 122.327 8.178C122.122 7.67933 121.807 7.29067 121.381 7.012C120.971 6.71867 120.435 6.572 119.775 6.572Z" fill="white"/>
</svg>
