<svg width="101" height="16" viewBox="0 0 101 16" fill="none" xmlns="http://www.w3.org/2000/svg">
<path d="M9.248 0.575999V10.72H10.704V15.008H9.328V12H1.472V15.008H0.096V10.72H0.976C1.36 10.0587 1.72267 9.31733 2.064 8.496C2.416 7.67467 2.72533 6.816 2.992 5.92C3.25867 5.01333 3.47733 4.10667 3.648 3.2C3.81867 2.29333 3.92533 1.41867 3.968 0.575999H9.248ZM5.232 1.872C5.18933 2.49067 5.08267 3.18933 4.912 3.968C4.752 4.74667 4.544 5.54667 4.288 6.368C4.04267 7.17867 3.76533 7.96267 3.456 8.72C3.15733 9.47733 2.83733 10.144 2.496 10.72H7.824V1.872H5.232ZM20.5985 12H14.2145V0.575999H20.5985V1.84H15.6545V5.408H20.3105V6.656H15.6545V10.736H20.5985V12ZM38.3911 12H36.6631L31.4951 6.208V12H30.0551V0.575999H31.4951V6.112L36.5351 0.575999H38.1671L33.2071 6.128L38.3911 12ZM46.3298 8.752C45.9884 9.50933 45.6418 10.144 45.2898 10.656C44.9484 11.1573 44.5431 11.536 44.0738 11.792C43.6044 12.0373 43.0071 12.16 42.2818 12.16C41.9831 12.16 41.7004 12.1387 41.4338 12.096C41.1778 12.0533 40.9431 11.9947 40.7298 11.92V10.496C40.9431 10.592 41.1724 10.672 41.4178 10.736C41.6631 10.7893 41.9191 10.816 42.1858 10.816C42.5804 10.816 42.9164 10.7627 43.1938 10.656C43.4818 10.5387 43.7324 10.352 43.9458 10.096C44.1698 9.84 44.3778 9.49867 44.5698 9.072L40.1698 0.575999H41.7538L44.9378 6.864C44.9804 6.93867 45.0231 7.02933 45.0658 7.136C45.1084 7.232 45.1511 7.33333 45.1938 7.44C45.2471 7.54667 45.2898 7.648 45.3218 7.744H45.3858C45.4178 7.66933 45.4498 7.584 45.4818 7.488C45.5244 7.38133 45.5618 7.28 45.5938 7.184C45.6364 7.07733 45.6738 6.98667 45.7058 6.912L48.4578 0.575999H49.9778L46.3298 8.752ZM53.1301 12V0.575999H61.7061V12H60.2821V1.84H54.5701V12H53.1301ZM66.4492 0.575999H67.7932V6.848C67.7932 7.11467 67.7879 7.408 67.7772 7.728C67.7772 8.03733 67.7719 8.34667 67.7612 8.656C67.7506 8.96533 67.7346 9.24267 67.7132 9.488C67.7026 9.72267 67.6919 9.904 67.6812 10.032H67.7452L74.0332 0.575999H75.6332V12H74.2892V5.792C74.2892 5.504 74.2946 5.19467 74.3052 4.864C74.3159 4.52267 74.3266 4.19733 74.3372 3.888C74.3586 3.568 74.3746 3.28533 74.3852 3.04C74.3959 2.79467 74.4066 2.61333 74.4172 2.496H74.3532L68.0492 12H66.4492V0.575999ZM83.9305 12H82.4905V1.84H78.9225V0.575999H87.4825V1.84H83.9305V12ZM90.8211 0.575999H92.1651V6.848C92.1651 7.11467 92.1598 7.408 92.1491 7.728C92.1491 8.03733 92.1438 8.34667 92.1331 8.656C92.1225 8.96533 92.1065 9.24267 92.0851 9.488C92.0745 9.72267 92.0638 9.904 92.0531 10.032H92.1171L98.4051 0.575999H100.005V12H98.6611V5.792C98.6611 5.504 98.6665 5.19467 98.6771 4.864C98.6878 4.52267 98.6985 4.19733 98.7091 3.888C98.7305 3.568 98.7465 3.28533 98.7571 3.04C98.7678 2.79467 98.7785 2.61333 98.7891 2.496H98.7251L92.4211 12H90.8211V0.575999Z" fill="white"/>
</svg>
