<svg width="412" height="80" viewBox="0 0 412 80" fill="none" xmlns="http://www.w3.org/2000/svg">
<path opacity="0.5" d="M2.20878 4.28V8.74H8.02878V4.28H9.78878V15H8.02878V10.22H2.20878V15H0.448783V4.28H2.20878ZM17.2432 4.1C18.5498 4.1 19.5165 4.38667 20.1432 4.96C20.7698 5.53333 21.0832 6.44667 21.0832 7.7V15H19.8032L19.4632 13.48H19.3832C19.0765 13.8667 18.7565 14.1933 18.4232 14.46C18.1032 14.7133 17.7298 14.9 17.3032 15.02C16.8898 15.14 16.3832 15.2 15.7832 15.2C15.1432 15.2 14.5632 15.0867 14.0432 14.86C13.5365 14.6333 13.1365 14.2867 12.8432 13.82C12.5498 13.34 12.4032 12.74 12.4032 12.02C12.4032 10.9533 12.8232 10.1333 13.6632 9.56C14.5032 8.97333 15.7965 8.65333 17.5432 8.6L19.3632 8.54V7.9C19.3632 7.00667 19.1698 6.38667 18.7832 6.04C18.3965 5.69333 17.8498 5.52 17.1432 5.52C16.5832 5.52 16.0498 5.60667 15.5432 5.78C15.0365 5.94 14.5632 6.12667 14.1232 6.34L13.5832 5.02C14.0498 4.76667 14.6032 4.55333 15.2432 4.38C15.8832 4.19333 16.5498 4.1 17.2432 4.1ZM17.7632 9.82C16.4298 9.87333 15.5032 10.0867 14.9832 10.46C14.4765 10.8333 14.2232 11.36 14.2232 12.04C14.2232 12.64 14.4032 13.08 14.7632 13.36C15.1365 13.64 15.6098 13.78 16.1832 13.78C17.0898 13.78 17.8432 13.5333 18.4432 13.04C19.0432 12.5333 19.3432 11.76 19.3432 10.72V9.76L17.7632 9.82ZM38.9341 4.28V15H24.3941V4.28H26.1541V13.52H30.7741V4.28H32.5341V13.52H37.1741V4.28H38.9341ZM46.4228 4.1C47.7295 4.1 48.6962 4.38667 49.3228 4.96C49.9495 5.53333 50.2628 6.44667 50.2628 7.7V15H48.9828L48.6428 13.48H48.5628C48.2562 13.8667 47.9362 14.1933 47.6028 14.46C47.2828 14.7133 46.9095 14.9 46.4828 15.02C46.0695 15.14 45.5628 15.2 44.9628 15.2C44.3228 15.2 43.7428 15.0867 43.2228 14.86C42.7162 14.6333 42.3162 14.2867 42.0228 13.82C41.7295 13.34 41.5828 12.74 41.5828 12.02C41.5828 10.9533 42.0028 10.1333 42.8428 9.56C43.6828 8.97333 44.9762 8.65333 46.7228 8.6L48.5428 8.54V7.9C48.5428 7.00667 48.3495 6.38667 47.9628 6.04C47.5762 5.69333 47.0295 5.52 46.3228 5.52C45.7628 5.52 45.2295 5.60667 44.7228 5.78C44.2162 5.94 43.7428 6.12667 43.3028 6.34L42.7628 5.02C43.2295 4.76667 43.7828 4.55333 44.4228 4.38C45.0628 4.19333 45.7295 4.1 46.4228 4.1ZM46.9428 9.82C45.6095 9.87333 44.6828 10.0867 44.1628 10.46C43.6562 10.8333 43.4028 11.36 43.4028 12.04C43.4028 12.64 43.5828 13.08 43.9428 13.36C44.3162 13.64 44.7895 13.78 45.3628 13.78C46.2695 13.78 47.0228 13.5333 47.6228 13.04C48.2228 12.5333 48.5228 11.76 48.5228 10.72V9.76L46.9428 9.82ZM64.6013 4.28H66.5213L61.9413 9.44L66.9013 15H64.8613L60.0213 9.56V15H58.2613V4.28H60.0213V9.48L64.6013 4.28ZM77.7766 9.62C77.7766 10.5133 77.6566 11.3067 77.4166 12C77.1899 12.68 76.8566 13.26 76.4166 13.74C75.9899 14.22 75.4633 14.5867 74.8366 14.84C74.2233 15.08 73.5366 15.2 72.7766 15.2C72.0699 15.2 71.4166 15.08 70.8166 14.84C70.2166 14.5867 69.6966 14.22 69.2566 13.74C68.8166 13.26 68.4699 12.68 68.2166 12C67.9766 11.3067 67.8566 10.5133 67.8566 9.62C67.8566 8.43333 68.0566 7.43333 68.4566 6.62C68.8566 5.79333 69.4299 5.16667 70.1766 4.74C70.9233 4.3 71.8099 4.08 72.8366 4.08C73.8099 4.08 74.6633 4.3 75.3966 4.74C76.1433 5.16667 76.7233 5.79333 77.1366 6.62C77.5633 7.43333 77.7766 8.43333 77.7766 9.62ZM69.6766 9.62C69.6766 10.46 69.7833 11.1933 69.9966 11.82C70.2233 12.4333 70.5699 12.9067 71.0366 13.24C71.5033 13.5733 72.0966 13.74 72.8166 13.74C73.5366 13.74 74.1299 13.5733 74.5966 13.24C75.0633 12.9067 75.4033 12.4333 75.6166 11.82C75.8433 11.1933 75.9566 10.46 75.9566 9.62C75.9566 8.76667 75.8433 8.04 75.6166 7.44C75.3899 6.84 75.0433 6.38 74.5766 6.06C74.1233 5.72667 73.5299 5.56 72.7966 5.56C71.7033 5.56 70.9099 5.92 70.4166 6.64C69.9233 7.36 69.6766 8.35333 69.6766 9.62ZM92.066 4.28V15H90.486V8.16C90.486 7.88 90.4926 7.58667 90.506 7.28C90.5326 6.97333 90.5593 6.67333 90.586 6.38H90.526L87.026 15H85.546L82.146 6.38H82.086C82.1126 6.67333 82.126 6.97333 82.126 7.28C82.1393 7.58667 82.146 7.9 82.146 8.22V15H80.566V4.28H82.906L86.286 12.9L89.726 4.28H92.066ZM99.5478 4.1C100.855 4.1 101.821 4.38667 102.448 4.96C103.075 5.53333 103.388 6.44667 103.388 7.7V15H102.108L101.768 13.48H101.688C101.381 13.8667 101.061 14.1933 100.728 14.46C100.408 14.7133 100.035 14.9 99.6078 15.02C99.1945 15.14 98.6878 15.2 98.0878 15.2C97.4478 15.2 96.8678 15.0867 96.3478 14.86C95.8412 14.6333 95.4412 14.2867 95.1478 13.82C94.8545 13.34 94.7078 12.74 94.7078 12.02C94.7078 10.9533 95.1278 10.1333 95.9678 9.56C96.8078 8.97333 98.1012 8.65333 99.8478 8.6L101.668 8.54V7.9C101.668 7.00667 101.475 6.38667 101.088 6.04C100.701 5.69333 100.155 5.52 99.4478 5.52C98.8878 5.52 98.3545 5.60667 97.8478 5.78C97.3412 5.94 96.8678 6.12667 96.4278 6.34L95.8878 5.02C96.3545 4.76667 96.9078 4.55333 97.5478 4.38C98.1878 4.19333 98.8545 4.1 99.5478 4.1ZM100.068 9.82C98.7345 9.87333 97.8078 10.0867 97.2878 10.46C96.7812 10.8333 96.5278 11.36 96.5278 12.04C96.5278 12.64 96.7078 13.08 97.0678 13.36C97.4412 13.64 97.9145 13.78 98.4878 13.78C99.3945 13.78 100.148 13.5333 100.748 13.04C101.348 12.5333 101.648 11.76 101.648 10.72V9.76L100.068 9.82ZM108.459 4.28V8.74H114.279V4.28H116.039V15H114.279V10.22H108.459V15H106.699V4.28H108.459ZM127.393 4.28V13.52H128.953V18.72H127.253V15H119.793V18.72H118.113V13.52H118.973C119.586 12.6667 120.093 11.74 120.493 10.74C120.906 9.72667 121.213 8.67333 121.413 7.58C121.626 6.47333 121.74 5.37333 121.753 4.28H127.393ZM123.313 5.66C123.26 6.56667 123.12 7.50667 122.893 8.48C122.666 9.44 122.373 10.36 122.013 11.24C121.666 12.12 121.26 12.88 120.793 13.52H125.693V5.66H123.313ZM135.114 4.1C136.421 4.1 137.388 4.38667 138.014 4.96C138.641 5.53333 138.954 6.44667 138.954 7.7V15H137.674L137.334 13.48H137.254C136.948 13.8667 136.628 14.1933 136.294 14.46C135.974 14.7133 135.601 14.9 135.174 15.02C134.761 15.14 134.254 15.2 133.654 15.2C133.014 15.2 132.434 15.0867 131.914 14.86C131.408 14.6333 131.008 14.2867 130.714 13.82C130.421 13.34 130.274 12.74 130.274 12.02C130.274 10.9533 130.694 10.1333 131.534 9.56C132.374 8.97333 133.668 8.65333 135.414 8.6L137.234 8.54V7.9C137.234 7.00667 137.041 6.38667 136.654 6.04C136.268 5.69333 135.721 5.52 135.014 5.52C134.454 5.52 133.921 5.60667 133.414 5.78C132.908 5.94 132.434 6.12667 131.994 6.34L131.454 5.02C131.921 4.76667 132.474 4.55333 133.114 4.38C133.754 4.19333 134.421 4.1 135.114 4.1ZM135.634 9.82C134.301 9.87333 133.374 10.0867 132.854 10.46C132.348 10.8333 132.094 11.36 132.094 12.04C132.094 12.64 132.274 13.08 132.634 13.36C133.008 13.64 133.481 13.78 134.054 13.78C134.961 13.78 135.714 13.5333 136.314 13.04C136.914 12.5333 137.214 11.76 137.214 10.72V9.76L135.634 9.82ZM161.493 4.28V15H146.953V4.28H148.713V13.52H153.333V4.28H155.093V13.52H159.733V4.28H161.493ZM173.081 15H171.301V5.74H168.141C168.008 7.43333 167.841 8.88 167.641 10.08C167.441 11.2667 167.188 12.2333 166.881 12.98C166.575 13.7267 166.208 14.2733 165.781 14.62C165.355 14.9667 164.855 15.14 164.281 15.14C164.108 15.14 163.935 15.1267 163.761 15.1C163.601 15.0867 163.468 15.0533 163.361 15V13.68C163.441 13.7067 163.528 13.7267 163.621 13.74C163.715 13.7533 163.808 13.76 163.901 13.76C164.195 13.76 164.461 13.64 164.701 13.4C164.941 13.16 165.155 12.7933 165.341 12.3C165.541 11.8067 165.721 11.1867 165.881 10.44C166.041 9.68 166.181 8.78667 166.301 7.76C166.421 6.73333 166.528 5.57333 166.621 4.28H173.081V15ZM177.144 15H175.104L178.164 10.5C177.751 10.3933 177.351 10.2267 176.964 10C176.577 9.76 176.264 9.43333 176.024 9.02C175.784 8.59333 175.664 8.06667 175.664 7.44C175.664 6.41333 176.011 5.63333 176.704 5.1C177.397 4.55333 178.317 4.28 179.464 4.28H184.264V15H182.504V10.74H179.904L177.144 15ZM177.364 7.46C177.364 8.07333 177.591 8.53333 178.044 8.84C178.511 9.13333 179.157 9.28 179.984 9.28H182.504V5.74H179.644C178.831 5.74 178.244 5.9 177.884 6.22C177.537 6.54 177.364 6.95333 177.364 7.46ZM190.196 9.52L186.496 4.28H188.496L191.256 8.32L193.996 4.28H195.976L192.276 9.52L196.176 15H194.176L191.256 10.72L188.296 15H186.316L190.196 9.52ZM207.171 9.62C207.171 10.5133 207.051 11.3067 206.811 12C206.584 12.68 206.251 13.26 205.811 13.74C205.384 14.22 204.858 14.5867 204.231 14.84C203.618 15.08 202.931 15.2 202.171 15.2C201.464 15.2 200.811 15.08 200.211 14.84C199.611 14.5867 199.091 14.22 198.651 13.74C198.211 13.26 197.864 12.68 197.611 12C197.371 11.3067 197.251 10.5133 197.251 9.62C197.251 8.43333 197.451 7.43333 197.851 6.62C198.251 5.79333 198.824 5.16667 199.571 4.74C200.318 4.3 201.204 4.08 202.231 4.08C203.204 4.08 204.058 4.3 204.791 4.74C205.538 5.16667 206.118 5.79333 206.531 6.62C206.958 7.43333 207.171 8.43333 207.171 9.62ZM199.071 9.62C199.071 10.46 199.178 11.1933 199.391 11.82C199.618 12.4333 199.964 12.9067 200.431 13.24C200.898 13.5733 201.491 13.74 202.211 13.74C202.931 13.74 203.524 13.5733 203.991 13.24C204.458 12.9067 204.798 12.4333 205.011 11.82C205.238 11.1933 205.351 10.46 205.351 9.62C205.351 8.76667 205.238 8.04 205.011 7.44C204.784 6.84 204.438 6.38 203.971 6.06C203.518 5.72667 202.924 5.56 202.191 5.56C201.098 5.56 200.304 5.92 199.811 6.64C199.318 7.36 199.071 8.35333 199.071 9.62ZM221.461 4.28V15H219.881V8.16C219.881 7.88 219.887 7.58667 219.901 7.28C219.927 6.97333 219.954 6.67333 219.981 6.38H219.921L216.421 15H214.941L211.541 6.38H211.481C211.507 6.67333 211.521 6.97333 211.521 7.28C211.534 7.58667 211.541 7.9 211.541 8.22V15H209.961V4.28H212.301L215.681 12.9L219.121 4.28H221.461ZM237.53 4.28V13.52H239.09V18.72H237.39V15H229.93V18.72H228.25V13.52H229.11C229.723 12.6667 230.23 11.74 230.63 10.74C231.043 9.72667 231.35 8.67333 231.55 7.58C231.763 6.47333 231.877 5.37333 231.89 4.28H237.53ZM233.45 5.66C233.397 6.56667 233.257 7.50667 233.03 8.48C232.803 9.44 232.51 10.36 232.15 11.24C231.803 12.12 231.397 12.88 230.93 13.52H235.83V5.66H233.45ZM250.511 9.62C250.511 10.5133 250.391 11.3067 250.151 12C249.924 12.68 249.591 13.26 249.151 13.74C248.724 14.22 248.198 14.5867 247.571 14.84C246.958 15.08 246.271 15.2 245.511 15.2C244.804 15.2 244.151 15.08 243.551 14.84C242.951 14.5867 242.431 14.22 241.991 13.74C241.551 13.26 241.204 12.68 240.951 12C240.711 11.3067 240.591 10.5133 240.591 9.62C240.591 8.43333 240.791 7.43333 241.191 6.62C241.591 5.79333 242.164 5.16667 242.911 4.74C243.658 4.3 244.544 4.08 245.571 4.08C246.544 4.08 247.398 4.3 248.131 4.74C248.878 5.16667 249.458 5.79333 249.871 6.62C250.298 7.43333 250.511 8.43333 250.511 9.62ZM242.411 9.62C242.411 10.46 242.518 11.1933 242.731 11.82C242.958 12.4333 243.304 12.9067 243.771 13.24C244.238 13.5733 244.831 13.74 245.551 13.74C246.271 13.74 246.864 13.5733 247.331 13.24C247.798 12.9067 248.138 12.4333 248.351 11.82C248.578 11.1933 248.691 10.46 248.691 9.62C248.691 8.76667 248.578 8.04 248.351 7.44C248.124 6.84 247.778 6.38 247.311 6.06C246.858 5.72667 246.264 5.56 245.531 5.56C244.438 5.56 243.644 5.92 243.151 6.64C242.658 7.36 242.411 8.35333 242.411 9.62ZM261.92 6.98C261.92 7.64667 261.72 8.16667 261.32 8.54C260.92 8.91333 260.407 9.16667 259.78 9.3V9.38C260.447 9.47333 261.027 9.71333 261.52 10.1C262.014 10.4733 262.26 11.06 262.26 11.86C262.26 12.3133 262.174 12.7333 262 13.12C261.84 13.5067 261.587 13.84 261.24 14.12C260.894 14.4 260.447 14.62 259.9 14.78C259.354 14.9267 258.694 15 257.92 15H253.3V4.28H257.9C258.66 4.28 259.34 4.36667 259.94 4.54C260.554 4.7 261.034 4.98 261.38 5.38C261.74 5.76667 261.92 6.3 261.92 6.98ZM260.44 11.86C260.44 11.2467 260.207 10.8067 259.74 10.54C259.274 10.2733 258.587 10.14 257.68 10.14H255.06V13.58H257.72C258.6 13.58 259.274 13.4533 259.74 13.2C260.207 12.9333 260.44 12.4867 260.44 11.86ZM260.14 7.2C260.14 6.69333 259.954 6.32667 259.58 6.1C259.22 5.86 258.627 5.74 257.8 5.74H255.06V8.68H257.48C258.347 8.68 259.007 8.56 259.46 8.32C259.914 8.08 260.14 7.70667 260.14 7.2ZM271.364 4.28V5.76H266.584V15H264.824V4.28H271.364ZM275.136 10.82C275.136 10.94 275.129 11.1133 275.116 11.34C275.116 11.5533 275.109 11.7867 275.096 12.04C275.083 12.28 275.069 12.5133 275.056 12.74C275.043 12.9533 275.029 13.1267 275.016 13.26L280.756 4.28H282.916V15H281.276V8.68C281.276 8.46667 281.276 8.18667 281.276 7.84C281.289 7.49333 281.303 7.15333 281.316 6.82C281.329 6.47333 281.343 6.21333 281.356 6.04L275.656 15H273.476V4.28H275.136V10.82ZM288.868 9.52L285.168 4.28H287.168L289.928 8.32L292.668 4.28H294.648L290.948 9.52L294.848 15H292.848L289.928 10.72L286.968 15H284.988L288.868 9.52ZM309.561 4.28V13.52H311.121V18.72H309.421V15H301.961V18.72H300.281V13.52H301.141C301.754 12.6667 302.261 11.74 302.661 10.74C303.074 9.72667 303.381 8.67333 303.581 7.58C303.794 6.47333 303.908 5.37333 303.921 4.28H309.561ZM305.481 5.66C305.428 6.56667 305.288 7.50667 305.061 8.48C304.834 9.44 304.541 10.36 304.181 11.24C303.834 12.12 303.428 12.88 302.961 13.52H307.861V5.66H305.481ZM322.542 9.62C322.542 10.5133 322.422 11.3067 322.182 12C321.956 12.68 321.622 13.26 321.182 13.74C320.756 14.22 320.229 14.5867 319.602 14.84C318.989 15.08 318.302 15.2 317.542 15.2C316.836 15.2 316.182 15.08 315.582 14.84C314.982 14.5867 314.462 14.22 314.022 13.74C313.582 13.26 313.236 12.68 312.982 12C312.742 11.3067 312.622 10.5133 312.622 9.62C312.622 8.43333 312.822 7.43333 313.222 6.62C313.622 5.79333 314.196 5.16667 314.942 4.74C315.689 4.3 316.576 4.08 317.602 4.08C318.576 4.08 319.429 4.3 320.162 4.74C320.909 5.16667 321.489 5.79333 321.902 6.62C322.329 7.43333 322.542 8.43333 322.542 9.62ZM314.442 9.62C314.442 10.46 314.549 11.1933 314.762 11.82C314.989 12.4333 315.336 12.9067 315.802 13.24C316.269 13.5733 316.862 13.74 317.582 13.74C318.302 13.74 318.896 13.5733 319.362 13.24C319.829 12.9067 320.169 12.4333 320.382 11.82C320.609 11.1933 320.722 10.46 320.722 9.62C320.722 8.76667 320.609 8.04 320.382 7.44C320.156 6.84 319.809 6.38 319.342 6.06C318.889 5.72667 318.296 5.56 317.562 5.56C316.469 5.56 315.676 5.92 315.182 6.64C314.689 7.36 314.442 8.35333 314.442 9.62ZM329.632 15.2C328.685 15.2 327.838 15.0067 327.092 14.62C326.358 14.2333 325.778 13.6333 325.352 12.82C324.938 12.0067 324.732 10.9667 324.732 9.7C324.732 8.38 324.952 7.30667 325.392 6.48C325.832 5.65333 326.425 5.04667 327.172 4.66C327.932 4.27333 328.792 4.08 329.752 4.08C330.298 4.08 330.825 4.14 331.332 4.26C331.838 4.36667 332.252 4.5 332.572 4.66L332.032 6.12C331.712 6 331.338 5.88667 330.912 5.78C330.485 5.67333 330.085 5.62 329.712 5.62C328.992 5.62 328.398 5.77333 327.932 6.08C327.465 6.38667 327.118 6.84 326.892 7.44C326.665 8.04 326.552 8.78667 326.552 9.68C326.552 10.5333 326.665 11.26 326.892 11.86C327.118 12.46 327.458 12.9133 327.912 13.22C328.365 13.5267 328.932 13.68 329.612 13.68C330.198 13.68 330.712 13.62 331.152 13.5C331.605 13.38 332.018 13.2333 332.392 13.06V14.62C332.032 14.8067 331.632 14.9467 331.192 15.04C330.765 15.1467 330.245 15.2 329.632 15.2ZM343.101 15H341.321V5.74H338.161C338.028 7.43333 337.861 8.88 337.661 10.08C337.461 11.2667 337.208 12.2333 336.901 12.98C336.594 13.7267 336.228 14.2733 335.801 14.62C335.374 14.9667 334.874 15.14 334.301 15.14C334.128 15.14 333.954 15.1267 333.781 15.1C333.621 15.0867 333.488 15.0533 333.381 15V13.68C333.461 13.7067 333.548 13.7267 333.641 13.74C333.734 13.7533 333.828 13.76 333.921 13.76C334.214 13.76 334.481 13.64 334.721 13.4C334.961 13.16 335.174 12.7933 335.361 12.3C335.561 11.8067 335.741 11.1867 335.901 10.44C336.061 9.68 336.201 8.78667 336.321 7.76C336.441 6.73333 336.548 5.57333 336.641 4.28H343.101V15ZM348.263 4.28V15H346.503V4.28H348.263ZM347.403 0.259999C347.67 0.259999 347.903 0.353332 348.103 0.539999C348.317 0.713332 348.423 0.993332 348.423 1.38C348.423 1.75333 348.317 2.03333 348.103 2.22C347.903 2.40667 347.67 2.5 347.403 2.5C347.11 2.5 346.863 2.40667 346.663 2.22C346.463 2.03333 346.363 1.75333 346.363 1.38C346.363 0.993332 346.463 0.713332 346.663 0.539999C346.863 0.353332 347.11 0.259999 347.403 0.259999ZM359.62 4.28V13.52H361.18V18.72H359.48V15H352.02V18.72H350.34V13.52H351.2C351.813 12.6667 352.32 11.74 352.72 10.74C353.133 9.72667 353.44 8.67333 353.64 7.58C353.853 6.47333 353.966 5.37333 353.98 4.28H359.62ZM355.54 5.66C355.486 6.56667 355.346 7.50667 355.12 8.48C354.893 9.44 354.6 10.36 354.24 11.24C353.893 12.12 353.486 12.88 353.02 13.52H357.92V5.66H355.54ZM376.141 4.28L371.721 9.48L376.521 15H374.521L369.881 9.56V15H368.241V9.56L363.601 15H361.601L366.401 9.48L361.981 4.28H363.901L368.241 9.48V4.28H369.881V9.48L374.241 4.28H376.141ZM382.03 4.08C382.95 4.08 383.737 4.28 384.39 4.68C385.057 5.08 385.564 5.64667 385.91 6.38C386.27 7.1 386.45 7.94667 386.45 8.92V9.98H379.11C379.137 11.1933 379.444 12.12 380.03 12.76C380.63 13.3867 381.464 13.7 382.53 13.7C383.21 13.7 383.81 13.64 384.33 13.52C384.864 13.3867 385.41 13.2 385.97 12.96V14.5C385.424 14.74 384.884 14.9133 384.35 15.02C383.817 15.14 383.184 15.2 382.45 15.2C381.437 15.2 380.537 14.9933 379.75 14.58C378.977 14.1667 378.37 13.5533 377.93 12.74C377.504 11.9133 377.29 10.9067 377.29 9.72C377.29 8.54667 377.484 7.54 377.87 6.7C378.27 5.86 378.824 5.21333 379.53 4.76C380.25 4.30667 381.084 4.08 382.03 4.08ZM382.01 5.52C381.17 5.52 380.504 5.79333 380.01 6.34C379.53 6.87333 379.244 7.62 379.15 8.58H384.61C384.61 7.96667 384.517 7.43333 384.33 6.98C384.144 6.52667 383.857 6.17333 383.47 5.92C383.097 5.65333 382.61 5.52 382.01 5.52ZM390.939 4.28V8.74H396.759V4.28H398.519V15H396.759V10.22H390.939V15H389.179V4.28H390.939ZM406.854 8.68C407.787 8.68 408.56 8.79333 409.174 9.02C409.787 9.24667 410.247 9.58667 410.554 10.04C410.874 10.48 411.034 11.04 411.034 11.72C411.034 12.3867 410.88 12.9667 410.574 13.46C410.28 13.9533 409.82 14.3333 409.194 14.6C408.567 14.8667 407.76 15 406.774 15H401.914V4.28H403.674V8.68H406.854ZM409.274 11.82C409.274 11.1667 409.04 10.7267 408.574 10.5C408.12 10.26 407.48 10.14 406.654 10.14H403.674V13.58H406.694C407.44 13.58 408.054 13.4467 408.534 13.18C409.027 12.9133 409.274 12.46 409.274 11.82ZM9.06878 36.98C9.06878 37.6467 8.86878 38.1667 8.46878 38.54C8.06878 38.9133 7.55545 39.1667 6.92878 39.3V39.38C7.59545 39.4733 8.17545 39.7133 8.66878 40.1C9.16212 40.4733 9.40878 41.06 9.40878 41.86C9.40878 42.3133 9.32212 42.7333 9.14878 43.12C8.98878 43.5067 8.73545 43.84 8.38878 44.12C8.04212 44.4 7.59545 44.62 7.04878 44.78C6.50212 44.9267 5.84212 45 5.06878 45H0.448783V34.28H5.04878C5.80878 34.28 6.48878 34.3667 7.08878 34.54C7.70212 34.7 8.18212 34.98 8.52878 35.38C8.88878 35.7667 9.06878 36.3 9.06878 36.98ZM7.58878 41.86C7.58878 41.2467 7.35545 40.8067 6.88878 40.54C6.42212 40.2733 5.73545 40.14 4.82878 40.14H2.20878V43.58H4.86878C5.74878 43.58 6.42212 43.4533 6.88878 43.2C7.35545 42.9333 7.58878 42.4867 7.58878 41.86ZM7.28878 37.2C7.28878 36.6933 7.10212 36.3267 6.72878 36.1C6.36878 35.86 5.77545 35.74 4.94878 35.74H2.20878V38.68H4.62878C5.49545 38.68 6.15545 38.56 6.60878 38.32C7.06212 38.08 7.28878 37.7067 7.28878 37.2ZM13.6322 40.82C13.6322 40.94 13.6256 41.1133 13.6122 41.34C13.6122 41.5533 13.6056 41.7867 13.5922 42.04C13.5789 42.28 13.5656 42.5133 13.5522 42.74C13.5389 42.9533 13.5256 43.1267 13.5122 43.26L19.2522 34.28H21.4122V45H19.7722V38.68C19.7722 38.4667 19.7722 38.1867 19.7722 37.84C19.7856 37.4933 19.7989 37.1533 19.8122 36.82C19.8256 36.4733 19.8389 36.2133 19.8522 36.04L14.1522 45H11.9722V34.28H13.6322V40.82ZM27.6438 34.08C28.4571 34.08 29.1638 34.1933 29.7638 34.42C30.3638 34.6333 30.8304 34.9533 31.1638 35.38C31.4971 35.7933 31.6638 36.3 31.6638 36.9C31.6638 37.5533 31.4838 38.0733 31.1238 38.46C30.7638 38.8333 30.2705 39.1067 29.6438 39.28V39.36C30.0704 39.48 30.4638 39.6467 30.8238 39.86C31.1838 40.0733 31.4705 40.3533 31.6838 40.7C31.9105 41.0467 32.0238 41.4933 32.0238 42.04C32.0238 42.6267 31.8571 43.16 31.5238 43.64C31.2038 44.12 30.7038 44.5 30.0238 44.78C29.3571 45.06 28.4971 45.2 27.4438 45.2C26.9371 45.2 26.4504 45.1733 25.9838 45.12C25.5304 45.0667 25.1171 44.9867 24.7438 44.88C24.3838 44.7733 24.0638 44.6467 23.7838 44.5V42.92C24.2371 43.1333 24.7704 43.3267 25.3838 43.5C26.0104 43.6733 26.6904 43.76 27.4238 43.76C27.9571 43.76 28.4371 43.7 28.8638 43.58C29.3038 43.46 29.6505 43.2733 29.9038 43.02C30.1571 42.7533 30.2838 42.3933 30.2838 41.94C30.2838 41.5267 30.1705 41.1933 29.9438 40.94C29.7171 40.6733 29.3771 40.4733 28.9238 40.34C28.4838 40.2067 27.9171 40.14 27.2238 40.14H25.7838V38.7H26.9438C27.8638 38.7 28.5971 38.58 29.1438 38.34C29.7038 38.0867 29.9838 37.66 29.9838 37.06C29.9838 36.5533 29.7705 36.1733 29.3438 35.92C28.9304 35.6667 28.3304 35.54 27.5438 35.54C26.9571 35.54 26.4371 35.6 25.9838 35.72C25.5438 35.8267 25.0571 35.9933 24.5238 36.22L23.9038 34.82C24.4771 34.5667 25.0771 34.38 25.7038 34.26C26.3305 34.14 26.9771 34.08 27.6438 34.08ZM36.3885 34.28V38.74H42.2085V34.28H43.9685V45H42.2085V40.22H36.3885V45H34.6285V34.28H36.3885ZM51.4228 34.1C52.7295 34.1 53.6962 34.3867 54.3228 34.96C54.9495 35.5333 55.2628 36.4467 55.2628 37.7V45H53.9828L53.6428 43.48H53.5628C53.2562 43.8667 52.9362 44.1933 52.6028 44.46C52.2828 44.7133 51.9095 44.9 51.4828 45.02C51.0695 45.14 50.5628 45.2 49.9628 45.2C49.3228 45.2 48.7428 45.0867 48.2228 44.86C47.7162 44.6333 47.3162 44.2867 47.0228 43.82C46.7295 43.34 46.5828 42.74 46.5828 42.02C46.5828 40.9533 47.0028 40.1333 47.8428 39.56C48.6828 38.9733 49.9762 38.6533 51.7228 38.6L53.5428 38.54V37.9C53.5428 37.0067 53.3495 36.3867 52.9628 36.04C52.5762 35.6933 52.0295 35.52 51.3228 35.52C50.7628 35.52 50.2295 35.6067 49.7228 35.78C49.2162 35.94 48.7428 36.1267 48.3028 36.34L47.7628 35.02C48.2295 34.7667 48.7828 34.5533 49.4228 34.38C50.0628 34.1933 50.7295 34.1 51.4228 34.1ZM51.9428 39.82C50.6095 39.8733 49.6828 40.0867 49.1628 40.46C48.6562 40.8333 48.4028 41.36 48.4028 42.04C48.4028 42.64 48.5828 43.08 48.9428 43.36C49.3162 43.64 49.7895 43.78 50.3628 43.78C51.2695 43.78 52.0228 43.5333 52.6228 43.04C53.2228 42.5333 53.5228 41.76 53.5228 40.72V39.76L51.9428 39.82ZM60.1138 38.18C60.1138 38.8067 60.2871 39.2733 60.6338 39.58C60.9938 39.8733 61.5071 40.02 62.1738 40.02C62.8405 40.02 63.4471 39.92 63.9938 39.72C64.5405 39.5067 65.1005 39.2267 65.6738 38.88V34.28H67.4338V45H65.6738V40.22C65.0738 40.6067 64.4804 40.9133 63.8938 41.14C63.3205 41.3533 62.6271 41.46 61.8138 41.46C60.7204 41.46 59.8671 41.1733 59.2538 40.6C58.6538 40.0267 58.3538 39.26 58.3538 38.3V34.28H60.1138V38.18ZM72.4994 40.82C72.4994 40.94 72.4927 41.1133 72.4794 41.34C72.4794 41.5533 72.4727 41.7867 72.4594 42.04C72.4461 42.28 72.4327 42.5133 72.4194 42.74C72.4061 42.9533 72.3927 43.1267 72.3794 43.26L78.1194 34.28H80.2794V45H78.6394V38.68C78.6394 38.4667 78.6394 38.1867 78.6394 37.84C78.6527 37.4933 78.6661 37.1533 78.6794 36.82C78.6927 36.4733 78.7061 36.2133 78.7194 36.04L73.0194 45H70.8394V34.28H72.4994V40.82ZM91.851 45H90.071V35.74H86.911C86.7776 37.4333 86.611 38.88 86.411 40.08C86.211 41.2667 85.9576 42.2333 85.651 42.98C85.3443 43.7267 84.9776 44.2733 84.551 44.62C84.1243 44.9667 83.6243 45.14 83.051 45.14C82.8776 45.14 82.7043 45.1267 82.531 45.1C82.371 45.0867 82.2376 45.0533 82.131 45V43.68C82.211 43.7067 82.2976 43.7267 82.391 43.74C82.4843 43.7533 82.5776 43.76 82.671 43.76C82.9643 43.76 83.231 43.64 83.471 43.4C83.711 43.16 83.9243 42.7933 84.111 42.3C84.311 41.8067 84.491 41.1867 84.651 40.44C84.811 39.68 84.951 38.7867 85.071 37.76C85.191 36.7333 85.2976 35.5733 85.391 34.28H91.851V45ZM99.3135 34.1C100.62 34.1 101.587 34.3867 102.213 34.96C102.84 35.5333 103.153 36.4467 103.153 37.7V45H101.873L101.533 43.48H101.453C101.147 43.8667 100.827 44.1933 100.493 44.46C100.173 44.7133 99.8001 44.9 99.3735 45.02C98.9601 45.14 98.4535 45.2 97.8535 45.2C97.2135 45.2 96.6335 45.0867 96.1135 44.86C95.6068 44.6333 95.2068 44.2867 94.9135 43.82C94.6201 43.34 94.4735 42.74 94.4735 42.02C94.4735 40.9533 94.8935 40.1333 95.7335 39.56C96.5735 38.9733 97.8668 38.6533 99.6135 38.6L101.433 38.54V37.9C101.433 37.0067 101.24 36.3867 100.853 36.04C100.467 35.6933 99.9201 35.52 99.2135 35.52C98.6535 35.52 98.1201 35.6067 97.6135 35.78C97.1068 35.94 96.6335 36.1267 96.1935 36.34L95.6535 35.02C96.1201 34.7667 96.6735 34.5533 97.3135 34.38C97.9535 34.1933 98.6201 34.1 99.3135 34.1ZM99.8335 39.82C98.5001 39.8733 97.5735 40.0867 97.0535 40.46C96.5468 40.8333 96.2935 41.36 96.2935 42.04C96.2935 42.64 96.4735 43.08 96.8335 43.36C97.2068 43.64 97.6801 43.78 98.2535 43.78C99.1601 43.78 99.9135 43.5333 100.513 43.04C101.113 42.5333 101.413 41.76 101.413 40.72V39.76L99.8335 39.82ZM105.897 47.2949L106.542 44.9902H105.302V42.0801H108.954V44.9023L107.958 47.2949H105.897ZM130.398 34.28V43.54H131.958V48.7H130.198V45H115.878V34.28H117.638V43.52H122.258V34.28H124.018V43.52H128.658V34.28H130.398ZM143.323 39.62C143.323 40.5133 143.203 41.3067 142.963 42C142.737 42.68 142.403 43.26 141.963 43.74C141.537 44.22 141.01 44.5867 140.383 44.84C139.77 45.08 139.083 45.2 138.323 45.2C137.617 45.2 136.963 45.08 136.363 44.84C135.763 44.5867 135.243 44.22 134.803 43.74C134.363 43.26 134.017 42.68 133.763 42C133.523 41.3067 133.403 40.5133 133.403 39.62C133.403 38.4333 133.603 37.4333 134.003 36.62C134.403 35.7933 134.977 35.1667 135.723 34.74C136.47 34.3 137.357 34.08 138.383 34.08C139.357 34.08 140.21 34.3 140.943 34.74C141.69 35.1667 142.27 35.7933 142.683 36.62C143.11 37.4333 143.323 38.4333 143.323 39.62ZM135.223 39.62C135.223 40.46 135.33 41.1933 135.543 41.82C135.77 42.4333 136.117 42.9067 136.583 43.24C137.05 43.5733 137.643 43.74 138.363 43.74C139.083 43.74 139.677 43.5733 140.143 43.24C140.61 42.9067 140.95 42.4333 141.163 41.82C141.39 41.1933 141.503 40.46 141.503 39.62C141.503 38.7667 141.39 38.04 141.163 37.44C140.937 36.84 140.59 36.38 140.123 36.06C139.67 35.7267 139.077 35.56 138.343 35.56C137.25 35.56 136.457 35.92 135.963 36.64C135.47 37.36 135.223 38.3533 135.223 39.62ZM155.1 45.2C154.154 45.2 153.307 45.0067 152.56 44.62C151.827 44.2333 151.247 43.6333 150.82 42.82C150.407 42.0067 150.2 40.9667 150.2 39.7C150.2 38.38 150.42 37.3067 150.86 36.48C151.3 35.6533 151.894 35.0467 152.64 34.66C153.4 34.2733 154.26 34.08 155.22 34.08C155.767 34.08 156.294 34.14 156.8 34.26C157.307 34.3667 157.72 34.5 158.04 34.66L157.5 36.12C157.18 36 156.807 35.8867 156.38 35.78C155.954 35.6733 155.554 35.62 155.18 35.62C154.46 35.62 153.867 35.7733 153.4 36.08C152.934 36.3867 152.587 36.84 152.36 37.44C152.134 38.04 152.02 38.7867 152.02 39.68C152.02 40.5333 152.134 41.26 152.36 41.86C152.587 42.46 152.927 42.9133 153.38 43.22C153.834 43.5267 154.4 43.68 155.08 43.68C155.667 43.68 156.18 43.62 156.62 43.5C157.074 43.38 157.487 43.2333 157.86 43.06V44.62C157.5 44.8067 157.1 44.9467 156.66 45.04C156.234 45.1467 155.714 45.2 155.1 45.2ZM169.47 34.28V45H167.71V35.78H162.17V45H160.41V34.28H169.47ZM182.21 39.62C182.21 40.5133 182.09 41.3067 181.85 42C181.624 42.68 181.29 43.26 180.85 43.74C180.424 44.22 179.897 44.5867 179.27 44.84C178.657 45.08 177.97 45.2 177.21 45.2C176.504 45.2 175.85 45.08 175.25 44.84C174.65 44.5867 174.13 44.22 173.69 43.74C173.25 43.26 172.904 42.68 172.65 42C172.41 41.3067 172.29 40.5133 172.29 39.62C172.29 38.4333 172.49 37.4333 172.89 36.62C173.29 35.7933 173.864 35.1667 174.61 34.74C175.357 34.3 176.244 34.08 177.27 34.08C178.244 34.08 179.097 34.3 179.83 34.74C180.577 35.1667 181.157 35.7933 181.57 36.62C181.997 37.4333 182.21 38.4333 182.21 39.62ZM174.11 39.62C174.11 40.46 174.217 41.1933 174.43 41.82C174.657 42.4333 175.004 42.9067 175.47 43.24C175.937 43.5733 176.53 43.74 177.25 43.74C177.97 43.74 178.564 43.5733 179.03 43.24C179.497 42.9067 179.837 42.4333 180.05 41.82C180.277 41.1933 180.39 40.46 180.39 39.62C180.39 38.7667 180.277 38.04 180.05 37.44C179.824 36.84 179.477 36.38 179.01 36.06C178.557 35.7267 177.964 35.56 177.23 35.56C176.137 35.56 175.344 35.92 174.85 36.64C174.357 37.36 174.11 38.3533 174.11 39.62ZM197.469 34.28L193.049 39.48L197.849 45H195.849L191.209 39.56V45H189.569V39.56L184.929 45H182.929L187.729 39.48L183.309 34.28H185.229L189.569 39.48V34.28H191.209V39.48L195.569 34.28H197.469ZM201.269 40.82C201.269 40.94 201.262 41.1133 201.249 41.34C201.249 41.5533 201.242 41.7867 201.229 42.04C201.216 42.28 201.202 42.5133 201.189 42.74C201.176 42.9533 201.162 43.1267 201.149 43.26L206.889 34.28H209.049V45H207.409V38.68C207.409 38.4667 207.409 38.1867 207.409 37.84C207.422 37.4933 207.436 37.1533 207.449 36.82C207.462 36.4733 207.476 36.2133 207.489 36.04L201.789 45H199.609V34.28H201.269V40.82ZM221.081 36.98C221.081 37.6467 220.881 38.1667 220.481 38.54C220.081 38.9133 219.567 39.1667 218.941 39.3V39.38C219.607 39.4733 220.187 39.7133 220.681 40.1C221.174 40.4733 221.421 41.06 221.421 41.86C221.421 42.3133 221.334 42.7333 221.161 43.12C221.001 43.5067 220.747 43.84 220.401 44.12C220.054 44.4 219.607 44.62 219.061 44.78C218.514 44.9267 217.854 45 217.081 45H212.461V34.28H217.061C217.821 34.28 218.501 34.3667 219.101 34.54C219.714 34.7 220.194 34.98 220.541 35.38C220.901 35.7667 221.081 36.3 221.081 36.98ZM219.601 41.86C219.601 41.2467 219.367 40.8067 218.901 40.54C218.434 40.2733 217.747 40.14 216.841 40.14H214.221V43.58H216.881C217.761 43.58 218.434 43.4533 218.901 43.2C219.367 42.9333 219.601 42.4867 219.601 41.86ZM219.301 37.2C219.301 36.6933 219.114 36.3267 218.741 36.1C218.381 35.86 217.787 35.74 216.961 35.74H214.221V38.68H216.641C217.507 38.68 218.167 38.56 218.621 38.32C219.074 38.08 219.301 37.7067 219.301 37.2ZM228.044 34.1C229.351 34.1 230.317 34.3867 230.944 34.96C231.571 35.5333 231.884 36.4467 231.884 37.7V45H230.604L230.264 43.48H230.184C229.877 43.8667 229.557 44.1933 229.224 44.46C228.904 44.7133 228.531 44.9 228.104 45.02C227.691 45.14 227.184 45.2 226.584 45.2C225.944 45.2 225.364 45.0867 224.844 44.86C224.337 44.6333 223.937 44.2867 223.644 43.82C223.351 43.34 223.204 42.74 223.204 42.02C223.204 40.9533 223.624 40.1333 224.464 39.56C225.304 38.9733 226.597 38.6533 228.344 38.6L230.164 38.54V37.9C230.164 37.0067 229.971 36.3867 229.584 36.04C229.197 35.6933 228.651 35.52 227.944 35.52C227.384 35.52 226.851 35.6067 226.344 35.78C225.837 35.94 225.364 36.1267 224.924 36.34L224.384 35.02C224.851 34.7667 225.404 34.5533 226.044 34.38C226.684 34.1933 227.351 34.1 228.044 34.1ZM228.564 39.82C227.231 39.8733 226.304 40.0867 225.784 40.46C225.277 40.8333 225.024 41.36 225.024 42.04C225.024 42.64 225.204 43.08 225.564 43.36C225.937 43.64 226.411 43.78 226.984 43.78C227.891 43.78 228.644 43.5333 229.244 43.04C229.844 42.5333 230.144 41.76 230.144 40.72V39.76L228.564 39.82ZM236.955 34.28V38.74H242.775V34.28H244.535V45H242.775V40.22H236.955V45H235.195V34.28H236.955ZM249.689 34.28V38.74H255.509V34.28H257.269V45H255.509V40.22H249.689V45H247.929V34.28H249.689ZM261.324 45H259.284L262.344 40.5C261.93 40.3933 261.53 40.2267 261.144 40C260.757 39.76 260.444 39.4333 260.204 39.02C259.964 38.5933 259.844 38.0667 259.844 37.44C259.844 36.4133 260.19 35.6333 260.884 35.1C261.577 34.5533 262.497 34.28 263.644 34.28H268.444V45H266.684V40.74H264.084L261.324 45ZM261.544 37.46C261.544 38.0733 261.77 38.5333 262.224 38.84C262.69 39.1333 263.337 39.28 264.164 39.28H266.684V35.74H263.824C263.01 35.74 262.424 35.9 262.064 36.22C261.717 36.54 261.544 36.9533 261.544 37.46ZM285.583 34.28V45H283.823V35.78H278.283V45H276.523V34.28H285.583ZM290.663 40.82C290.663 40.94 290.657 41.1133 290.643 41.34C290.643 41.5533 290.637 41.7867 290.623 42.04C290.61 42.28 290.597 42.5133 290.583 42.74C290.57 42.9533 290.557 43.1267 290.543 43.26L296.283 34.28H298.443V45H296.803V38.68C296.803 38.4667 296.803 38.1867 296.803 37.84C296.817 37.4933 296.83 37.1533 296.843 36.82C296.857 36.4733 296.87 36.2133 296.883 36.04L291.183 45H289.003V34.28H290.663V40.82ZM310.475 36.98C310.475 37.6467 310.275 38.1667 309.875 38.54C309.475 38.9133 308.962 39.1667 308.335 39.3V39.38C309.002 39.4733 309.582 39.7133 310.075 40.1C310.568 40.4733 310.815 41.06 310.815 41.86C310.815 42.3133 310.728 42.7333 310.555 43.12C310.395 43.5067 310.142 43.84 309.795 44.12C309.448 44.4 309.002 44.62 308.455 44.78C307.908 44.9267 307.248 45 306.475 45H301.855V34.28H306.455C307.215 34.28 307.895 34.3667 308.495 34.54C309.108 34.7 309.588 34.98 309.935 35.38C310.295 35.7667 310.475 36.3 310.475 36.98ZM308.995 41.86C308.995 41.2467 308.762 40.8067 308.295 40.54C307.828 40.2733 307.142 40.14 306.235 40.14H303.615V43.58H306.275C307.155 43.58 307.828 43.4533 308.295 43.2C308.762 42.9333 308.995 42.4867 308.995 41.86ZM308.695 37.2C308.695 36.6933 308.508 36.3267 308.135 36.1C307.775 35.86 307.182 35.74 306.355 35.74H303.615V38.68H306.035C306.902 38.68 307.562 38.56 308.015 38.32C308.468 38.08 308.695 37.7067 308.695 37.2ZM317.438 34.1C318.745 34.1 319.712 34.3867 320.338 34.96C320.965 35.5333 321.278 36.4467 321.278 37.7V45H319.998L319.658 43.48H319.578C319.272 43.8667 318.952 44.1933 318.618 44.46C318.298 44.7133 317.925 44.9 317.498 45.02C317.085 45.14 316.578 45.2 315.978 45.2C315.338 45.2 314.758 45.0867 314.238 44.86C313.732 44.6333 313.332 44.2867 313.038 43.82C312.745 43.34 312.598 42.74 312.598 42.02C312.598 40.9533 313.018 40.1333 313.858 39.56C314.698 38.9733 315.992 38.6533 317.738 38.6L319.558 38.54V37.9C319.558 37.0067 319.365 36.3867 318.978 36.04C318.592 35.6933 318.045 35.52 317.338 35.52C316.778 35.52 316.245 35.6067 315.738 35.78C315.232 35.94 314.758 36.1267 314.318 36.34L313.778 35.02C314.245 34.7667 314.798 34.5533 315.438 34.38C316.078 34.1933 316.745 34.1 317.438 34.1ZM317.958 39.82C316.625 39.8733 315.698 40.0867 315.178 40.46C314.672 40.8333 314.418 41.36 314.418 42.04C314.418 42.64 314.598 43.08 314.958 43.36C315.332 43.64 315.805 43.78 316.378 43.78C317.285 43.78 318.038 43.5333 318.638 43.04C319.238 42.5333 319.538 41.76 319.538 40.72V39.76L317.958 39.82ZM332.097 34.08C332.91 34.08 333.617 34.1933 334.217 34.42C334.817 34.6333 335.284 34.9533 335.617 35.38C335.95 35.7933 336.117 36.3 336.117 36.9C336.117 37.5533 335.937 38.0733 335.577 38.46C335.217 38.8333 334.724 39.1067 334.097 39.28V39.36C334.524 39.48 334.917 39.6467 335.277 39.86C335.637 40.0733 335.924 40.3533 336.137 40.7C336.364 41.0467 336.477 41.4933 336.477 42.04C336.477 42.6267 336.31 43.16 335.977 43.64C335.657 44.12 335.157 44.5 334.477 44.78C333.81 45.06 332.95 45.2 331.897 45.2C331.39 45.2 330.904 45.1733 330.437 45.12C329.984 45.0667 329.57 44.9867 329.197 44.88C328.837 44.7733 328.517 44.6467 328.237 44.5V42.92C328.69 43.1333 329.224 43.3267 329.837 43.5C330.464 43.6733 331.144 43.76 331.877 43.76C332.41 43.76 332.89 43.7 333.317 43.58C333.757 43.46 334.104 43.2733 334.357 43.02C334.61 42.7533 334.737 42.3933 334.737 41.94C334.737 41.5267 334.624 41.1933 334.397 40.94C334.17 40.6733 333.83 40.4733 333.377 40.34C332.937 40.2067 332.37 40.14 331.677 40.14H330.237V38.7H331.397C332.317 38.7 333.05 38.58 333.597 38.34C334.157 38.0867 334.437 37.66 334.437 37.06C334.437 36.5533 334.224 36.1733 333.797 35.92C333.384 35.6667 332.784 35.54 331.997 35.54C331.41 35.54 330.89 35.6 330.437 35.72C329.997 35.8267 329.51 35.9933 328.977 36.22L328.357 34.82C328.93 34.5667 329.53 34.38 330.157 34.26C330.784 34.14 331.43 34.08 332.097 34.08ZM340.842 34.28V38.74H346.662V34.28H348.422V45H346.662V40.22H340.842V45H339.082V34.28H340.842ZM355.876 34.1C357.183 34.1 358.149 34.3867 358.776 34.96C359.403 35.5333 359.716 36.4467 359.716 37.7V45H358.436L358.096 43.48H358.016C357.709 43.8667 357.389 44.1933 357.056 44.46C356.736 44.7133 356.363 44.9 355.936 45.02C355.523 45.14 355.016 45.2 354.416 45.2C353.776 45.2 353.196 45.0867 352.676 44.86C352.169 44.6333 351.769 44.2867 351.476 43.82C351.183 43.34 351.036 42.74 351.036 42.02C351.036 40.9533 351.456 40.1333 352.296 39.56C353.136 38.9733 354.429 38.6533 356.176 38.6L357.996 38.54V37.9C357.996 37.0067 357.803 36.3867 357.416 36.04C357.029 35.6933 356.483 35.52 355.776 35.52C355.216 35.52 354.683 35.6067 354.176 35.78C353.669 35.94 353.196 36.1267 352.756 36.34L352.216 35.02C352.683 34.7667 353.236 34.5533 353.876 34.38C354.516 34.1933 355.183 34.1 355.876 34.1ZM356.396 39.82C355.063 39.8733 354.136 40.0867 353.616 40.46C353.109 40.8333 352.856 41.36 352.856 42.04C352.856 42.64 353.036 43.08 353.396 43.36C353.769 43.64 354.243 43.78 354.816 43.78C355.723 43.78 356.476 43.5333 357.076 43.04C357.676 42.5333 357.976 41.76 357.976 40.72V39.76L356.396 39.82ZM364.567 38.18C364.567 38.8067 364.74 39.2733 365.087 39.58C365.447 39.8733 365.96 40.02 366.627 40.02C367.294 40.02 367.9 39.92 368.447 39.72C368.994 39.5067 369.554 39.2267 370.127 38.88V34.28H371.887V45H370.127V40.22C369.527 40.6067 368.934 40.9133 368.347 41.14C367.774 41.3533 367.08 41.46 366.267 41.46C365.174 41.46 364.32 41.1733 363.707 40.6C363.107 40.0267 362.807 39.26 362.807 38.3V34.28H364.567V38.18ZM377.053 34.28V38.74H382.873V34.28H384.633V45H382.873V40.22H377.053V45H375.293V34.28H377.053ZM397.347 39.62C397.347 40.5133 397.227 41.3067 396.987 42C396.76 42.68 396.427 43.26 395.987 43.74C395.56 44.22 395.034 44.5867 394.407 44.84C393.794 45.08 393.107 45.2 392.347 45.2C391.64 45.2 390.987 45.08 390.387 44.84C389.787 44.5867 389.267 44.22 388.827 43.74C388.387 43.26 388.04 42.68 387.787 42C387.547 41.3067 387.427 40.5133 387.427 39.62C387.427 38.4333 387.627 37.4333 388.027 36.62C388.427 35.7933 389 35.1667 389.747 34.74C390.494 34.3 391.38 34.08 392.407 34.08C393.38 34.08 394.234 34.3 394.967 34.74C395.714 35.1667 396.294 35.7933 396.707 36.62C397.134 37.4333 397.347 38.4333 397.347 39.62ZM389.247 39.62C389.247 40.46 389.354 41.1933 389.567 41.82C389.794 42.4333 390.14 42.9067 390.607 43.24C391.074 43.5733 391.667 43.74 392.387 43.74C393.107 43.74 393.7 43.5733 394.167 43.24C394.634 42.9067 394.974 42.4333 395.187 41.82C395.414 41.1933 395.527 40.46 395.527 39.62C395.527 38.7667 395.414 38.04 395.187 37.44C394.96 36.84 394.614 36.38 394.147 36.06C393.694 35.7267 393.1 35.56 392.367 35.56C391.274 35.56 390.48 35.92 389.987 36.64C389.494 37.36 389.247 38.3533 389.247 39.62ZM9.50878 64.28V75H7.74878V65.78H2.20878V75H0.448783V64.28H9.50878ZM22.2493 69.62C22.2493 70.5133 22.1293 71.3067 21.8893 72C21.6626 72.68 21.3293 73.26 20.8893 73.74C20.4626 74.22 19.9359 74.5867 19.3093 74.84C18.6959 75.08 18.0093 75.2 17.2493 75.2C16.5426 75.2 15.8893 75.08 15.2893 74.84C14.6893 74.5867 14.1693 74.22 13.7293 73.74C13.2893 73.26 12.9426 72.68 12.6893 72C12.4493 71.3067 12.3293 70.5133 12.3293 69.62C12.3293 68.4333 12.5293 67.4333 12.9293 66.62C13.3293 65.7933 13.9026 65.1667 14.6493 64.74C15.3959 64.3 16.2826 64.08 17.3093 64.08C18.2826 64.08 19.1359 64.3 19.8693 64.74C20.6159 65.1667 21.1959 65.7933 21.6093 66.62C22.0359 67.4333 22.2493 68.4333 22.2493 69.62ZM14.1493 69.62C14.1493 70.46 14.2559 71.1933 14.4693 71.82C14.6959 72.4333 15.0426 72.9067 15.5093 73.24C15.9759 73.5733 16.5693 73.74 17.2893 73.74C18.0093 73.74 18.6026 73.5733 19.0693 73.24C19.5359 72.9067 19.8759 72.4333 20.0893 71.82C20.3159 71.1933 20.4293 70.46 20.4293 69.62C20.4293 68.7667 20.3159 68.04 20.0893 67.44C19.8626 66.84 19.5159 66.38 19.0493 66.06C18.5959 65.7267 18.0026 65.56 17.2693 65.56C16.1759 65.56 15.3826 65.92 14.8893 66.64C14.3959 67.36 14.1493 68.3533 14.1493 69.62ZM31.3786 64.28H33.2986L28.7186 69.44L33.6786 75H31.6386L26.7986 69.56V75H25.0386V64.28H26.7986V69.48L31.3786 64.28ZM40.7246 64.08C42.0446 64.08 43.1046 64.54 43.9046 65.46C44.7179 66.38 45.1246 67.7667 45.1246 69.62C45.1246 70.8333 44.9379 71.86 44.5646 72.7C44.2046 73.5267 43.6912 74.1533 43.0246 74.58C42.3712 74.9933 41.5979 75.2 40.7046 75.2C40.1579 75.2 39.6712 75.1267 39.2446 74.98C38.8179 74.8333 38.4512 74.6467 38.1446 74.42C37.8512 74.18 37.5979 73.92 37.3846 73.64H37.2646C37.2912 73.8667 37.3179 74.1533 37.3446 74.5C37.3712 74.8467 37.3846 75.1467 37.3846 75.4V79.8H35.6246V64.28H37.0646L37.3046 65.74H37.3846C37.5979 65.4333 37.8512 65.1533 38.1446 64.9C38.4512 64.6467 38.8112 64.4467 39.2246 64.3C39.6512 64.1533 40.1512 64.08 40.7246 64.08ZM40.4046 65.56C39.6846 65.56 39.1046 65.7 38.6646 65.98C38.2246 66.2467 37.9046 66.6533 37.7046 67.2C37.5046 67.7467 37.3979 68.44 37.3846 69.28V69.62C37.3846 70.5 37.4779 71.2467 37.6646 71.86C37.8512 72.4733 38.1646 72.94 38.6046 73.26C39.0579 73.58 39.6712 73.74 40.4446 73.74C41.0979 73.74 41.6312 73.56 42.0446 73.2C42.4712 72.84 42.7846 72.3533 42.9846 71.74C43.1979 71.1133 43.3046 70.4 43.3046 69.6C43.3046 68.3733 43.0646 67.3933 42.5846 66.66C42.1179 65.9267 41.3912 65.56 40.4046 65.56ZM51.9893 64.1C53.2959 64.1 54.2626 64.3867 54.8893 64.96C55.5159 65.5333 55.8293 66.4467 55.8293 67.7V75H54.5493L54.2093 73.48H54.1293C53.8226 73.8667 53.5026 74.1933 53.1693 74.46C52.8493 74.7133 52.4759 74.9 52.0493 75.02C51.6359 75.14 51.1293 75.2 50.5293 75.2C49.8893 75.2 49.3093 75.0867 48.7893 74.86C48.2826 74.6333 47.8826 74.2867 47.5893 73.82C47.2959 73.34 47.1493 72.74 47.1493 72.02C47.1493 70.9533 47.5693 70.1333 48.4093 69.56C49.2493 68.9733 50.5426 68.6533 52.2893 68.6L54.1093 68.54V67.9C54.1093 67.0067 53.9159 66.3867 53.5293 66.04C53.1426 65.6933 52.5959 65.52 51.8893 65.52C51.3293 65.52 50.7959 65.6067 50.2893 65.78C49.7826 65.94 49.3093 66.1267 48.8693 66.34L48.3293 65.02C48.7959 64.7667 49.3493 64.5533 49.9893 64.38C50.6293 64.1933 51.2959 64.1 51.9893 64.1ZM52.5093 69.82C51.1759 69.8733 50.2493 70.0867 49.7293 70.46C49.2226 70.8333 48.9693 71.36 48.9693 72.04C48.9693 72.64 49.1493 73.08 49.5093 73.36C49.8826 73.64 50.3559 73.78 50.9293 73.78C51.8359 73.78 52.5893 73.5333 53.1893 73.04C53.7893 72.5333 54.0893 71.76 54.0893 70.72V69.76L52.5093 69.82ZM73.6602 64.28V73.54H75.2202V78.7H73.4602V75H59.1402V64.28H60.9002V73.52H65.5202V64.28H67.2802V73.52H71.9202V64.28H73.6602ZM75.5852 64.28H77.4652L79.7852 70.38C79.9185 70.74 80.0385 71.0867 80.1452 71.42C80.2652 71.7533 80.3719 72.08 80.4652 72.4C80.5585 72.7067 80.6319 73.0067 80.6852 73.3H80.7652C80.8452 72.9667 80.9719 72.5333 81.1452 72C81.3185 71.4533 81.4985 70.9067 81.6852 70.36L83.8652 64.28H85.7652L81.1452 76.48C80.8919 77.1467 80.5919 77.7267 80.2452 78.22C79.9119 78.7267 79.4985 79.1133 79.0052 79.38C78.5252 79.66 77.9385 79.8 77.2452 79.8C76.9252 79.8 76.6452 79.78 76.4052 79.74C76.1652 79.7133 75.9585 79.68 75.7852 79.64V78.24C75.9319 78.2667 76.1052 78.2933 76.3052 78.32C76.5185 78.3467 76.7385 78.36 76.9652 78.36C77.3785 78.36 77.7319 78.28 78.0252 78.12C78.3319 77.9733 78.5919 77.7533 78.8052 77.46C79.0185 77.18 79.1985 76.8467 79.3452 76.46L79.9052 75.04L75.5852 64.28ZM91.9605 75.2C90.9738 75.2 90.0938 75.0133 89.3205 74.64C88.5605 74.2533 87.9605 73.6533 87.5205 72.84C87.0805 72.0267 86.8605 70.98 86.8605 69.7C86.8605 68.3667 87.0872 67.2867 87.5405 66.46C87.9938 65.6333 88.6072 65.0333 89.3805 64.66C90.1672 64.2733 91.0472 64.08 92.0205 64.08C92.5672 64.08 93.1005 64.1333 93.6205 64.24C94.1538 64.3467 94.6072 64.4867 94.9805 64.66L94.4605 66.1C94.0872 65.9533 93.6738 65.8333 93.2205 65.74C92.7805 65.6467 92.3672 65.6 91.9805 65.6C91.3005 65.6 90.7272 65.7133 90.2605 65.94C89.7938 66.1667 89.4338 66.5133 89.1805 66.98C88.9272 67.4467 88.7605 68.04 88.6805 68.76H93.9405V70.2H88.6605C88.7005 70.9867 88.8472 71.64 89.1005 72.16C89.3538 72.68 89.7138 73.0667 90.1805 73.32C90.6472 73.5733 91.2272 73.7 91.9205 73.7C92.5205 73.7 93.0538 73.64 93.5205 73.52C93.9872 73.4 94.4205 73.26 94.8205 73.1V74.62C94.4472 74.8067 94.0338 74.9467 93.5805 75.04C93.1272 75.1467 92.5872 75.2 91.9605 75.2ZM110.67 66.98C110.67 67.6467 110.47 68.1667 110.07 68.54C109.67 68.9133 109.157 69.1667 108.53 69.3V69.38C109.197 69.4733 109.777 69.7133 110.27 70.1C110.764 70.4733 111.01 71.06 111.01 71.86C111.01 72.3133 110.924 72.7333 110.75 73.12C110.59 73.5067 110.337 73.84 109.99 74.12C109.644 74.4 109.197 74.62 108.65 74.78C108.104 74.9267 107.444 75 106.67 75H102.05V64.28H106.65C107.41 64.28 108.09 64.3667 108.69 64.54C109.304 64.7 109.784 64.98 110.13 65.38C110.49 65.7667 110.67 66.3 110.67 66.98ZM109.19 71.86C109.19 71.2467 108.957 70.8067 108.49 70.54C108.024 70.2733 107.337 70.14 106.43 70.14H103.81V73.58H106.47C107.35 73.58 108.024 73.4533 108.49 73.2C108.957 72.9333 109.19 72.4867 109.19 71.86ZM108.89 67.2C108.89 66.6933 108.704 66.3267 108.33 66.1C107.97 65.86 107.377 65.74 106.55 65.74H103.81V68.68H106.23C107.097 68.68 107.757 68.56 108.21 68.32C108.664 68.08 108.89 67.7067 108.89 67.2ZM117.634 64.1C118.94 64.1 119.907 64.3867 120.534 64.96C121.16 65.5333 121.474 66.4467 121.474 67.7V75H120.194L119.854 73.48H119.774C119.467 73.8667 119.147 74.1933 118.814 74.46C118.494 74.7133 118.12 74.9 117.694 75.02C117.28 75.14 116.774 75.2 116.174 75.2C115.534 75.2 114.954 75.0867 114.434 74.86C113.927 74.6333 113.527 74.2867 113.234 73.82C112.94 73.34 112.794 72.74 112.794 72.02C112.794 70.9533 113.214 70.1333 114.054 69.56C114.894 68.9733 116.187 68.6533 117.934 68.6L119.754 68.54V67.9C119.754 67.0067 119.56 66.3867 119.174 66.04C118.787 65.6933 118.24 65.52 117.534 65.52C116.974 65.52 116.44 65.6067 115.934 65.78C115.427 65.94 114.954 66.1267 114.514 66.34L113.974 65.02C114.44 64.7667 114.994 64.5533 115.634 64.38C116.274 64.1933 116.94 64.1 117.634 64.1ZM118.154 69.82C116.82 69.8733 115.894 70.0867 115.374 70.46C114.867 70.8333 114.614 71.36 114.614 72.04C114.614 72.64 114.794 73.08 115.154 73.36C115.527 73.64 116 73.78 116.574 73.78C117.48 73.78 118.234 73.5333 118.834 73.04C119.434 72.5333 119.734 71.76 119.734 70.72V69.76L118.154 69.82ZM139.325 64.28V75H124.785V64.28H126.545V73.52H131.165V64.28H132.925V73.52H137.565V64.28H139.325ZM149.201 64.28V68.74H155.021V64.28H156.781V75H155.021V70.22H149.201V75H147.441V64.28H149.201ZM164.235 64.1C165.542 64.1 166.509 64.3867 167.135 64.96C167.762 65.5333 168.075 66.4467 168.075 67.7V75H166.795L166.455 73.48H166.375C166.069 73.8667 165.749 74.1933 165.415 74.46C165.095 74.7133 164.722 74.9 164.295 75.02C163.882 75.14 163.375 75.2 162.775 75.2C162.135 75.2 161.555 75.0867 161.035 74.86C160.529 74.6333 160.129 74.2867 159.835 73.82C159.542 73.34 159.395 72.74 159.395 72.02C159.395 70.9533 159.815 70.1333 160.655 69.56C161.495 68.9733 162.789 68.6533 164.535 68.6L166.355 68.54V67.9C166.355 67.0067 166.162 66.3867 165.775 66.04C165.389 65.6933 164.842 65.52 164.135 65.52C163.575 65.52 163.042 65.6067 162.535 65.78C162.029 65.94 161.555 66.1267 161.115 66.34L160.575 65.02C161.042 64.7667 161.595 64.5533 162.235 64.38C162.875 64.1933 163.542 64.1 164.235 64.1ZM164.755 69.82C163.422 69.8733 162.495 70.0867 161.975 70.46C161.469 70.8333 161.215 71.36 161.215 72.04C161.215 72.64 161.395 73.08 161.755 73.36C162.129 73.64 162.602 73.78 163.175 73.78C164.082 73.78 164.835 73.5333 165.435 73.04C166.035 72.5333 166.335 71.76 166.335 70.72V69.76L164.755 69.82ZM175.686 75.2C174.74 75.2 173.893 75.0067 173.146 74.62C172.413 74.2333 171.833 73.6333 171.406 72.82C170.993 72.0067 170.786 70.9667 170.786 69.7C170.786 68.38 171.006 67.3067 171.446 66.48C171.886 65.6533 172.48 65.0467 173.226 64.66C173.986 64.2733 174.846 64.08 175.806 64.08C176.353 64.08 176.88 64.14 177.386 64.26C177.893 64.3667 178.306 64.5 178.626 64.66L178.086 66.12C177.766 66 177.393 65.8867 176.966 65.78C176.54 65.6733 176.14 65.62 175.766 65.62C175.046 65.62 174.453 65.7733 173.986 66.08C173.52 66.3867 173.173 66.84 172.946 67.44C172.72 68.04 172.606 68.7867 172.606 69.68C172.606 70.5333 172.72 71.26 172.946 71.86C173.173 72.46 173.513 72.9133 173.966 73.22C174.42 73.5267 174.986 73.68 175.666 73.68C176.253 73.68 176.766 73.62 177.206 73.5C177.66 73.38 178.073 73.2333 178.446 73.06V74.62C178.086 74.8067 177.686 74.9467 177.246 75.04C176.82 75.1467 176.3 75.2 175.686 75.2ZM188.396 65.76H184.896V75H183.156V65.76H179.696V64.28H188.396V65.76ZM195.607 64.08C196.927 64.08 197.987 64.54 198.787 65.46C199.601 66.38 200.007 67.7667 200.007 69.62C200.007 70.8333 199.821 71.86 199.447 72.7C199.087 73.5267 198.574 74.1533 197.907 74.58C197.254 74.9933 196.481 75.2 195.587 75.2C195.041 75.2 194.554 75.1267 194.127 74.98C193.701 74.8333 193.334 74.6467 193.027 74.42C192.734 74.18 192.481 73.92 192.267 73.64H192.147C192.174 73.8667 192.201 74.1533 192.227 74.5C192.254 74.8467 192.267 75.1467 192.267 75.4V79.8H190.507V64.28H191.947L192.187 65.74H192.267C192.481 65.4333 192.734 65.1533 193.027 64.9C193.334 64.6467 193.694 64.4467 194.107 64.3C194.534 64.1533 195.034 64.08 195.607 64.08ZM195.287 65.56C194.567 65.56 193.987 65.7 193.547 65.98C193.107 66.2467 192.787 66.6533 192.587 67.2C192.387 67.7467 192.281 68.44 192.267 69.28V69.62C192.267 70.5 192.361 71.2467 192.547 71.86C192.734 72.4733 193.047 72.94 193.487 73.26C193.941 73.58 194.554 73.74 195.327 73.74C195.981 73.74 196.514 73.56 196.927 73.2C197.354 72.84 197.667 72.3533 197.867 71.74C198.081 71.1133 198.187 70.4 198.187 69.6C198.187 68.3733 197.947 67.3933 197.467 66.66C197.001 65.9267 196.274 65.56 195.287 65.56ZM204.572 64.28V75H202.812V64.28H204.572ZM203.712 60.26C203.979 60.26 204.212 60.3533 204.412 60.54C204.625 60.7133 204.732 60.9933 204.732 61.38C204.732 61.7533 204.625 62.0333 204.412 62.22C204.212 62.4067 203.979 62.5 203.712 62.5C203.419 62.5 203.172 62.4067 202.972 62.22C202.772 62.0333 202.672 61.7533 202.672 61.38C202.672 60.9933 202.772 60.7133 202.972 60.54C203.172 60.3533 203.419 60.26 203.712 60.26ZM216.648 59.84C216.595 60.5067 216.428 61.0667 216.148 61.52C215.882 61.9733 215.482 62.3133 214.948 62.54C214.415 62.7667 213.722 62.88 212.868 62.88C212.002 62.88 211.302 62.7667 210.768 62.54C210.248 62.3133 209.868 61.98 209.628 61.54C209.388 61.0867 209.242 60.52 209.188 59.84H210.828C210.895 60.56 211.082 61.0467 211.388 61.3C211.708 61.54 212.215 61.66 212.908 61.66C213.522 61.66 214.002 61.5333 214.348 61.28C214.708 61.0133 214.922 60.5333 214.988 59.84H216.648ZM209.628 70.82C209.628 70.94 209.622 71.1133 209.608 71.34C209.608 71.5533 209.602 71.7867 209.588 72.04C209.575 72.28 209.562 72.5133 209.548 72.74C209.535 72.9533 209.522 73.1267 209.508 73.26L215.248 64.28H217.408V75H215.768V68.68C215.768 68.4667 215.768 68.1867 215.768 67.84C215.782 67.4933 215.795 67.1533 215.808 66.82C215.822 66.4733 215.835 66.2133 215.848 66.04L210.148 75H207.968V64.28H209.628V70.82Z" fill="white"/>
</svg>
