<svg width="138" height="13" viewBox="0 0 138 13" fill="none" xmlns="http://www.w3.org/2000/svg">
<path d="M0.552 12V0.575999H9.128V12H7.704V1.84H1.992V12H0.552ZM13.8711 0.575999H15.2151V6.848C15.2151 7.11467 15.2098 7.408 15.1991 7.728C15.1991 8.03733 15.1938 8.34667 15.1831 8.656C15.1725 8.96533 15.1565 9.24267 15.1351 9.488C15.1245 9.72267 15.1138 9.904 15.1031 10.032H15.1671L21.4551 0.575999H23.0551V12H21.7111V5.792C21.7111 5.504 21.7165 5.19467 21.7271 4.864C21.7378 4.52267 21.7485 4.19733 21.7591 3.888C21.7805 3.568 21.7965 3.28533 21.8071 3.04C21.8178 2.79467 21.8285 2.61333 21.8391 2.496H21.7751L15.4711 12H13.8711V0.575999ZM31.0004 0.575999C31.9497 0.575999 32.7444 0.666666 33.3844 0.848C34.035 1.02933 34.5204 1.328 34.8404 1.744C35.171 2.16 35.3364 2.71467 35.3364 3.408C35.3364 3.856 35.251 4.256 35.0804 4.608C34.9204 4.94933 34.675 5.23733 34.3444 5.472C34.0244 5.696 33.6297 5.85067 33.1604 5.936V6.016C33.6404 6.09067 34.0724 6.22933 34.4564 6.432C34.851 6.63467 35.1604 6.92267 35.3844 7.296C35.6084 7.66933 35.7204 8.15467 35.7204 8.752C35.7204 9.44533 35.5604 10.0373 35.2404 10.528C34.9204 11.008 34.4617 11.376 33.8644 11.632C33.2777 11.8773 32.5737 12 31.7524 12H27.7364V0.575999H31.0004ZM31.2884 5.44C32.2697 5.44 32.9417 5.28533 33.3044 4.976C33.667 4.656 33.8484 4.18667 33.8484 3.568C33.8484 2.93867 33.6244 2.49067 33.1764 2.224C32.739 1.94667 32.035 1.808 31.0644 1.808H29.1764V5.44H31.2884ZM29.1764 6.64V10.784H31.4804C32.4937 10.784 33.1977 10.5867 33.5924 10.192C33.987 9.79733 34.1844 9.28 34.1844 8.64C34.1844 8.23467 34.0937 7.88267 33.9124 7.584C33.7417 7.28533 33.4484 7.056 33.0324 6.896C32.627 6.72533 32.0724 6.64 31.3684 6.64H29.1764ZM49.7106 6.272C49.7106 7.15733 49.5986 7.96267 49.3746 8.688C49.1506 9.40267 48.8146 10.0213 48.3666 10.544C47.9293 11.0667 47.38 11.4667 46.7186 11.744C46.068 12.0213 45.3106 12.16 44.4466 12.16C43.5506 12.16 42.772 12.0213 42.1106 11.744C41.4493 11.456 40.9 11.056 40.4626 10.544C40.0253 10.0213 39.7 9.39733 39.4866 8.672C39.2733 7.94667 39.1666 7.14133 39.1666 6.256C39.1666 5.08267 39.3586 4.05867 39.7426 3.184C40.1266 2.30933 40.708 1.62667 41.4866 1.136C42.276 0.645333 43.268 0.4 44.4626 0.4C45.604 0.4 46.564 0.645333 47.3426 1.136C48.1213 1.616 48.708 2.29867 49.1026 3.184C49.508 4.05867 49.7106 5.088 49.7106 6.272ZM40.6866 6.272C40.6866 7.232 40.82 8.05867 41.0866 8.752C41.3533 9.44533 41.764 9.97867 42.3186 10.352C42.884 10.7253 43.5933 10.912 44.4466 10.912C45.3106 10.912 46.0146 10.7253 46.5586 10.352C47.1133 9.97867 47.524 9.44533 47.7906 8.752C48.0573 8.05867 48.1906 7.232 48.1906 6.272C48.1906 4.832 47.892 3.70667 47.2946 2.896C46.6973 2.07467 45.7533 1.664 44.4626 1.664C43.5986 1.664 42.884 1.85067 42.3186 2.224C41.764 2.58667 41.3533 3.11467 41.0866 3.808C40.82 4.49067 40.6866 5.312 40.6866 6.272ZM62.4086 12H58.2806V11.168L59.6246 10.864V1.728L58.2806 1.408V0.575999H62.4086V1.408L61.0646 1.728V10.864L62.4086 11.168V12ZM76.4605 1.68C75.8525 1.68 75.3032 1.78667 74.8125 2C74.3218 2.20267 73.9058 2.50667 73.5645 2.912C73.2232 3.30667 72.9618 3.792 72.7805 4.368C72.5992 4.93333 72.5085 5.57333 72.5085 6.288C72.5085 7.22667 72.6525 8.04267 72.9405 8.736C73.2392 9.42933 73.6765 9.96267 74.2525 10.336C74.8392 10.7093 75.5698 10.896 76.4445 10.896C76.9458 10.896 77.4205 10.8533 77.8685 10.768C78.3165 10.6827 78.7538 10.576 79.1805 10.448V11.696C78.7538 11.856 78.3112 11.9733 77.8525 12.048C77.4045 12.1227 76.8658 12.16 76.2365 12.16C75.0738 12.16 74.1032 11.92 73.3245 11.44C72.5458 10.96 71.9592 10.2773 71.5645 9.392C71.1805 8.50667 70.9885 7.46667 70.9885 6.272C70.9885 5.408 71.1058 4.61867 71.3405 3.904C71.5858 3.18933 71.9378 2.57067 72.3965 2.048C72.8658 1.52533 73.4418 1.12533 74.1245 0.848C74.8072 0.559999 75.5912 0.415999 76.4765 0.415999C77.0632 0.415999 77.6285 0.474666 78.1725 0.591999C78.7165 0.709333 79.2018 0.874666 79.6285 1.088L79.0525 2.304C78.7005 2.144 78.3058 2 77.8685 1.872C77.4418 1.744 76.9725 1.68 76.4605 1.68ZM86.8899 12H85.4499V1.84H81.8819V0.575999H90.4419V1.84H86.8899V12ZM96.7885 0.575999C98.2818 0.575999 99.3698 0.869333 100.053 1.456C100.735 2.04267 101.077 2.86933 101.077 3.936C101.077 4.40533 100.997 4.85867 100.837 5.296C100.687 5.72267 100.437 6.10667 100.085 6.448C99.7325 6.78933 99.2632 7.06133 98.6765 7.264C98.0898 7.456 97.3698 7.552 96.5165 7.552H95.2045V12H93.7645V0.575999H96.7885ZM96.6605 1.808H95.2045V6.32H96.3565C97.0818 6.32 97.6845 6.24533 98.1645 6.096C98.6445 5.936 99.0018 5.68533 99.2365 5.344C99.4712 5.00267 99.5885 4.55467 99.5885 4C99.5885 3.264 99.3538 2.71467 98.8845 2.352C98.4152 1.98933 97.6738 1.808 96.6605 1.808ZM111.423 12L110.047 8.464H105.519L104.159 12H102.703L107.167 0.528H108.463L112.911 12H111.423ZM108.335 3.728C108.303 3.64267 108.25 3.488 108.175 3.264C108.1 3.04 108.026 2.81067 107.951 2.576C107.887 2.33067 107.834 2.144 107.791 2.016C107.738 2.22933 107.679 2.448 107.615 2.672C107.562 2.88533 107.503 3.08267 107.439 3.264C107.386 3.44533 107.338 3.6 107.295 3.728L105.999 7.184H109.615L108.335 3.728ZM119.338 0.575999C120.287 0.575999 121.082 0.666666 121.722 0.848C122.373 1.02933 122.858 1.328 123.178 1.744C123.509 2.16 123.674 2.71467 123.674 3.408C123.674 3.856 123.589 4.256 123.418 4.608C123.258 4.94933 123.013 5.23733 122.682 5.472C122.362 5.696 121.967 5.85067 121.498 5.936V6.016C121.978 6.09067 122.41 6.22933 122.794 6.432C123.189 6.63467 123.498 6.92267 123.722 7.296C123.946 7.66933 124.058 8.15467 124.058 8.752C124.058 9.44533 123.898 10.0373 123.578 10.528C123.258 11.008 122.799 11.376 122.202 11.632C121.615 11.8773 120.911 12 120.09 12H116.074V0.575999H119.338ZM119.626 5.44C120.607 5.44 121.279 5.28533 121.642 4.976C122.005 4.656 122.186 4.18667 122.186 3.568C122.186 2.93867 121.962 2.49067 121.514 2.224C121.077 1.94667 120.373 1.808 119.402 1.808H117.514V5.44H119.626ZM117.514 6.64V10.784H119.818C120.831 10.784 121.535 10.5867 121.93 10.192C122.325 9.79733 122.522 9.28 122.522 8.64C122.522 8.23467 122.431 7.88267 122.25 7.584C122.079 7.28533 121.786 7.056 121.37 6.896C120.965 6.72533 120.41 6.64 119.706 6.64H117.514ZM128.096 0.575999H129.44V6.848C129.44 7.11467 129.435 7.408 129.424 7.728C129.424 8.03733 129.419 8.34667 129.408 8.656C129.397 8.96533 129.381 9.24267 129.36 9.488C129.349 9.72267 129.339 9.904 129.328 10.032H129.392L135.68 0.575999H137.28V12H135.936V5.792C135.936 5.504 135.941 5.19467 135.952 4.864C135.963 4.52267 135.973 4.19733 135.984 3.888C136.005 3.568 136.021 3.28533 136.032 3.04C136.043 2.79467 136.053 2.61333 136.064 2.496H136L129.696 12H128.096V0.575999Z" fill="white"/>
</svg>
