<svg width="26" height="25" viewBox="0 0 26 25" fill="none" xmlns="http://www.w3.org/2000/svg">
<path d="M19.3468 16.1625C20.8598 14.098 21.5374 11.5383 21.2442 8.99555C20.9509 6.45283 19.7084 4.1146 17.7652 2.44864C15.822 0.782694 13.3214 -0.088115 10.7637 0.0104368C8.20607 0.108989 5.77991 1.16963 3.97067 2.98017C2.16142 4.79071 1.10252 7.21762 1.0058 9.77537C0.909074 12.3331 1.78167 14.8331 3.44901 16.7751C5.11635 18.7171 7.45548 19.9579 9.99841 20.2494C12.5413 20.5408 15.1005 19.8613 17.164 18.3469H17.1624C17.2093 18.4094 17.2593 18.4688 17.3156 18.5266L23.3312 24.5422C23.6242 24.8354 24.0216 25.0002 24.4361 25.0003C24.8506 25.0005 25.2482 24.836 25.5413 24.543C25.8345 24.25 25.9993 23.8525 25.9995 23.4381C25.9996 23.0236 25.8351 22.626 25.5421 22.3328L19.5265 16.3172C19.4706 16.2606 19.4106 16.21 19.3468 16.1625ZM19.7499 10.1563C19.7499 11.2848 19.5277 12.4023 19.0958 13.4449C18.6639 14.4876 18.0309 15.4349 17.2329 16.233C16.4349 17.031 15.4875 17.664 14.4449 18.0958C13.4022 18.5277 12.2847 18.75 11.1562 18.75C10.0276 18.75 8.91014 18.5277 7.8675 18.0958C6.82486 17.664 5.87749 17.031 5.07949 16.233C4.28149 15.4349 3.64847 14.4876 3.2166 13.4449C2.78472 12.4023 2.56244 11.2848 2.56244 10.1563C2.56244 7.87705 3.46785 5.6912 5.07949 4.07956C6.69113 2.46792 8.87698 1.5625 11.1562 1.5625C13.4354 1.5625 15.6212 2.46792 17.2329 4.07956C18.8445 5.6912 19.7499 7.87705 19.7499 10.1563Z" fill="black"/>
</svg>
